<svg height="400" viewBox="0 0 616 400" width="616" xmlns="http://www.w3.org/2000/svg"><path d="m0 0h615.9v399.8h-615.9z" fill="#fff"/><path d="m385 133.3h-.1z" fill="none"/><path d="m500.4 199.9h.1l38.4-66.5-.1-.1h-76.8l-.1.1z" fill="#f9f9f9"/><path d="m346.4 199.9h.1l38.4-66.5-.1-.1h-76.9l-.1.1z" fill="#f5f5f5"/><path d="m462 133.3h-.1z" fill="none"/><path d="m423.4 199.9h.1l38.4-66.5-.1-.1h-76.8l-.1.1z" fill="#f7f7f7"/><path d="m231.1 133.3h-.1zm77 0h-.1z" fill="none"/><path d="m192.5 199.9h.1l38.4-66.5-.1-.1h-76.9l-.1.1z" fill="#fcfcfc"/><path d="m269.4 199.9h.1l38.4-66.5-.1-.1h-76.9l-.1.1z" fill="#f9f9f9"/><path d="m154.1 133.3h-.1z" fill="none"/><path d="m231.1 266.5h76.9l-38.5-66.5z" fill="#efefef"/><path d="m269.4 199.9h-76.9l-.1.1 38.4 66.5h.1z" fill="#f1f1f1"/><path d="m269.6 199.9h-.1zm153.9 0h-.1z" fill="none"/><path d="m346.4 199.9h-76.9l-.1.1 38.4 66.5h.1z" fill="#f0f0f0"/><path d="m577.5 66.6h-.1z" fill="none"/><path d="m385 266.5h76.9l-38.4-66.5z" fill="#f2f2f2"/><path d="m423.5 199.9 38.4 66.6h.1l38.4-66.5-.1-.1z" fill="#f3f3f3"/><path d="m423.4 199.9h-76.9l-.1.1 38.4 66.5h.1z" fill="#eee"/><path d="m346.6 199.9h-.1z" fill="none"/><path d="m500.5 199.9 38.4 66.6h.1l38.4-66.5-.1-.1zm-38.5 66.6 38.4 66.6h.1l38.4-66.5-.1-.1z" fill="#f8f8f8"/><path d="m346.6 333.2h76.9l-38.5-66.6z" fill="#f7f7f7"/><path d="m461.9 266.5h-76.9l-.1.1 38.4 66.5h.1z" fill="#f8f8f8"/><path d="m423.5 333.2h76.9l-38.4-66.6z" fill="#f4f4f4"/><path d="m539 133.3 38.4 66.6h.1l38.4-66.5-.1-.1z" fill="#f7f7f7"/><path d="m154 133.4-76.9-.1-.1.1 38.4 66.5h.1z" fill="#f9f9f9"/><path d="m154 266.5h-76.9l-.1.1 38.4 66.5h.1z" fill="#f8f8f8"/><path d="m115.6 333.2h76.9l-38.5-66.6zm-.1-133.2-38.4 66.5h76.9z" fill="#f5f5f5"/><path d="m154.1 266.5 38.4-66.5-.1-.1h-76.9l-.1.1 38.4 66.5z" fill="#f4f4f4"/><path d="m115.5 199.9h.1z" fill="none"/><path d="m231 266.5h-76.9l-.1.1 38.4 66.5h.1z" fill="#f7f7f7"/><path d="m269.6 333.2h76.9l-38.5-66.6z" fill="#f9f9f9"/><path d="m307.9 266.5h-76.9l-.1.1 38.4 66.5h.1zm-115.3 66.7h76.9l-38.5-66.6z" fill="#f8f8f8"/><path d="m384.9 266.5h-76.9l-.1.1 38.4 66.5h.1z" fill="#fafafa"/><path d="m308.1 266.5h76.9l-38.5-66.5z" fill="#f1f1f1"/><path d="m615.9 266.5-38.5-66.5-38.4 66.5z" fill="#fafafa"/><path d="m462 133.4-38.4 66.5h76.9zm0-133.3-38.4 66.5h76.9z" fill="#f7f7f7"/><path d="m539 .1-38.4 66.5h76.9l-38.5-66.5zm-500.4 333.1h76.9l-38.5-66.6z" fill="#f5f5f5"/><path d="m.1 133.3h76.9l-38.4-66.6-38.5 66.6z" fill="#f3f3f3"/><path d="m77 266.5h.1zm0-133.2h.1z" fill="none"/><path d="m38.6 199.9h76.9l-38.5-66.5z" fill="#f7f7f7"/><path d="m0 266.5h.1z" fill="none"/><path d="m115.5 66.7-38.4 66.5h76.9z" fill="#f4f4f4"/><path d="m77 .1-38.4 66.5h76.9l-38.5-66.5z" fill="#f1f1f1"/><path d="m231 .1-38.4 66.5h76.9l-38.5-66.5z" fill="#f7f7f7"/><path d="m308 .1-38.4 66.5h76.9l-38.5-66.5z" fill="#f5f5f5"/><path d="m385 .1-38.4 66.5h76.9l-38.5-66.5z" fill="#f7f7f7"/><path d="m154 .1-38.4 66.5h76.9l-38.5-66.5z" fill="#f4f4f4"/><path d="m577.4 333.2-38.4-66.6-38.4 66.5h76.8z" fill="#f0f0f0"/><path d="m154.1 266.5h76.9l-38.5-66.5z" fill="#f5f5f5"/><path d="m192.5 66.7-38.4 66.5h76.9z" fill="#f7f7f7"/><path d="m385 133.4-38.4 66.5h76.9z" fill="#f8f8f8"/><path d="m192.5 199.9h.1z" fill="none"/><path d="m308 133.4-38.4 66.5h76.9z" fill="#f7f7f7"/><path d="m231 133.4-38.4 66.5h76.9z" fill="#f9f9f9"/><path d="m115.6 199.9h76.9l-38.5-66.5z" fill="#fbfbfb"/><path d="m346.5 66.7-38.4 66.5h76.9z" fill="#f8f8f8"/><path d="m269.5 66.7-38.4 66.5h76.9z" fill="#f7f7f7"/><path d="m500.5 66.7-38.5 66.6h76.9z" fill="#f3f3f3"/><path d="m423.5 66.7-38.5 66.6h76.9z" fill="#f8f8f8"/><path d="m577.4 66.7-38.4 66.6h76.9z" fill="#f4f4f4"/><path d="m577.4 199.9-38.4-66.5-38.4 66.5z" fill="#fbfbfb"/><path d="m538.9 266.5-38.4-66.5-38.5 66.5z" fill="#fafafa"/><path d="m539 133.3h-.1z" fill="none"/><path d="m115.5 66.6h.1l38.4-66.5v-.1h-76.9l-.1.1z" fill="#f2f2f2"/><path d="m538.9 133.3h.1l38.4-66.5-.1-.1h-76.9l-.1.1z" fill="#f3f3f3"/><path d="m77.1 0h-.1z" fill="none"/><path d="m577.4 66.6h.1l38.5-66.6h-77v.1z" fill="#f4f4f4"/><path d="m154.1 0h-.1z" fill="none"/><path d="m192.5 66.6h.1l38.4-66.5v-.1h-76.9l-.1.1z" fill="#fbfbfb"/><path d="m462 0h-.1zm77 0h-.1z" fill="none"/><path d="m500.4 66.6h.1l38.5-66.5-.1-.1h-76.9v.1z" fill="#f8f8f8"/><path d="m385 0h-.1z" fill="none"/><path d="m423.4 66.6h.1l38.5-66.5-.1-.1h-76.9v.1z" fill="#f3f3f3"/><path d="m346.4 66.6h.1l38.5-66.5-.1-.1h-76.9v.1z" fill="#f4f4f4"/><path d="m231.1 0h-.1z" fill="none"/><path d="m269.4 66.6h.1l38.5-66.5-.1-.1h-76.9v.1z" fill="#f4f4f4"/><path d="m308.1 0h-.1z" fill="none"/><path d="m38.6 66.6 38.4-66.5v-.1h-77l38.5 66.6z" fill="#f2f2f2"/><path d="m461.9 400h.1z" fill="none"/><path d="m500.5 333.3-38.5 66.6.1.1h76.9l.1-.1z" fill="#f8f8f8"/><path d="m346.5 333.3-38.5 66.6.1.1h76.9l.1-.1z" fill="#fbfbfb"/><path d="m384.9 400h.1z" fill="none"/><path d="m423.5 333.3-38.5 66.6.1.1h76.9l.1-.1z" fill="#f9f9f9"/><path d="m538.9 400h.1z" fill="none"/><path d="m539 399.9 77 .1-38.6-66.7z" fill="#efefef"/><path d="m38.6 333.3-38.6 66.7h77l.1-.1z" fill="#fafafa"/><path d="m77 400h.1zm230.9 0h.1z" fill="none"/><path d="m115.5 333.3-38.5 66.6.1.1h76.9l.1-.1z" fill="#fefefe"/><path d="m231 400h.1z" fill="none"/><path d="m269.5 333.3-38.5 66.6.1.1h76.9l.1-.1z" fill="#fcfcfc"/><path d="m154 400h.1z" fill="none"/><path d="m192.5 333.3-38.5 66.6.1.1h76.9l.1-.1z" fill="#fafafa"/><path d="m115.6 66.6h-.1z" fill="none"/><path d="m77 133.4-76.9-.1-.1.1 38.4 66.5h.1z" fill="#f4f4f4"/><path d="m0 133.3h.1z" fill="none"/><path d="m77 133.3h.1l38.4-66.5-.1-.1h-76.8l-.1.1z" fill="#f5f5f5"/><path d="m38.5 333.2h.1z" fill="none"/><path d="m38.5 333.2-38.4-66.6-.1.1v66.4h38.5z" fill="#f6f6f6"/><path d="m38.5 199.9-38.4-66.5-.1.1v66.4z" fill="#f4f4f4"/><path d="m0 266.5h.1l38.5-66.5-.1-.1h-38.5z" fill="#f7f7f7"/><path d="m0 400 38.6-66.7-.1-.1h-38.5z" fill="#f5f5f5"/><path d="m38.5 66.6-38.5-66.6v66.6z" fill="#f4f4f4"/><path d="m0 133.3h.1l38.4-66.5-.1-.1h-38.4z" fill="#f5f5f5"/><path d="m38.5 199.9h.1z" fill="none"/><path d="m38.6 200-38.5 66.5h76.9zm38.4 66.6-76.9-.1-.1.1 38.4 66.5h.1zm.1-.1 38.4-66.5-.1-.1h-76.8l-.1.1 38.5 66.5z" fill="#f5f5f5"/><path d="m38.6 66.6h-.1zm308 0h-.1z" fill="none"/><path d="m384.9 133.3h.1l38.4-66.5-.1-.1h-76.9l-.1.1z" fill="#f6f6f6"/><path d="m423.5 66.6h-.1z" fill="none"/><path d="m461.9 133.3h.1l38.4-66.5-.1-.1h-76.9l-.1.1z" fill="#fafafa"/><path d="m154 133.3h.1l38.4-66.5-.1-.1h-76.9l-.1.1z" fill="#f6f6f6"/><path d="m500.5 66.6h-.1zm-307.9 0h-.1z" fill="none"/><path d="m231 133.3h.1l38.4-66.5-.1-.1h-76.9l-.1.1z" fill="#f6f6f6"/><path d="m269.6 66.6h-.1z" fill="none"/><path d="m307.9 133.3h.1l38.4-66.5-.1-.1h-76.9l-.1.1z" fill="#f8f8f8"/><path d="m539 266.5 38.4 66.6h.1l38.4-66.5-.1-.1z" fill="#ededed"/><path d="m500.4 333.2h.1z" fill="none"/><path d="m500.5 333.2 38.4 66.7 38.5-66.6-.1-.1z" fill="#f9f9f9"/><path d="m423.5 333.2 38.4 66.7 38.5-66.6-.1-.1zm-384.9 0 38.4 66.7 38.5-66.6-.1-.1z" fill="#fbfbfb"/><path d="m577.5 66.6 38.4 66.6v-66.6z" fill="#f5f5f5"/><path d="m615.9 133.5-38.4 66.4h38.4z" fill="#f4f4f4"/><path d="m615.9 266.7-38.4 66.4h38.4z" fill="#f6f6f6"/><path d="m577.5 333.2 38.4 66.6v-66.6z" fill="#f5f5f5"/><path d="m615.9.2-38.4 66.4h38.4v-66.4z" fill="#f4f4f4"/><path d="m577.5 199.9 38.4 66.6v-66.6z" fill="#f7f7f7"/><path d="m192.6 333.2 38.4 66.7 38.5-66.6-.1-.1z" fill="#fcfcfc"/><path d="m115.6 333.2 38.4 66.7 38.5-66.6-.1-.1z" fill="#fdfdfd"/><path d="m192.5 333.2h.1zm-77 0h.1z" fill="none"/><path d="m269.6 333.2 38.4 66.7 38.5-66.6-.1-.1zm77 0 38.4 66.7 38.5-66.6-.1-.1z" fill="#fcfcfc"/><path d="m346.4 333.2h.1zm-77 0h.1zm154 0h.1z" fill="none"/></svg>