<svg xmlns="http://www.w3.org/2000/svg" width="1440" height="900"><path d="M750,430L747,481L818,466Z" fill="#0a0100" stroke="#0a0100" stroke-width="1.51"/><path d="M818,466L835,430L750,430Z" fill="#0e0200" stroke="#0e0200" stroke-width="1.51"/><path d="M750,430L702,410L747,481Z" fill="#050100" stroke="#050100" stroke-width="1.51"/><path d="M753,306L702,410L750,430Z" fill="#140400" stroke="#140400" stroke-width="1.51"/><path d="M747,481L744,567L818,466Z" fill="#110201" stroke="#110201" stroke-width="1.51"/><path d="M678,582L744,567L747,481Z" fill="#120200" stroke="#120200" stroke-width="1.51"/><path d="M744,567L870,556L818,466Z" fill="#180301" stroke="#180301" stroke-width="1.51"/><path d="M818,466L922,472L835,430Z" fill="#130200" stroke="#130200" stroke-width="1.51"/><path d="M702,410L645,489L747,481Z" fill="#070100" stroke="#070100" stroke-width="1.51"/><path d="M870,556L922,472L818,466Z" fill="#190301" stroke="#190301" stroke-width="1.51"/><path d="M835,430L753,306L750,430Z" fill="#170400" stroke="#170400" stroke-width="1.51"/><path d="M951,411L855,326L835,430Z" fill="#1e0601" stroke="#1e0601" stroke-width="1.51"/><path d="M855,326L753,306L835,430Z" fill="#1f0700" stroke="#1f0700" stroke-width="1.51"/><path d="M702,410L601,406L645,489Z" fill="#130400" stroke="#130400" stroke-width="1.51"/><path d="M645,489L678,582L747,481Z" fill="#130300" stroke="#130300" stroke-width="1.51"/><path d="M744,567L816,672L870,556Z" fill="#1e0501" stroke="#1e0501" stroke-width="1.51"/><path d="M922,472L951,411L835,430Z" fill="#180301" stroke="#180301" stroke-width="1.51"/><path d="M682,287L601,406L702,410Z" fill="#1d0600" stroke="#1d0600" stroke-width="1.51"/><path d="M645,489L618,597L678,582Z" fill="#1c0501" stroke="#1c0501" stroke-width="1.51"/><path d="M601,406L593,464L645,489Z" fill="#150400" stroke="#150400" stroke-width="1.51"/><path d="M753,306L682,287L702,410Z" fill="#1c0600" stroke="#1c0600" stroke-width="1.51"/><path d="M757,253L682,287L753,306Z" fill="#230900" stroke="#230900" stroke-width="1.51"/><path d="M855,326L757,253L753,306Z" fill="#240901" stroke="#240901" stroke-width="1.51"/><path d="M593,464L618,597L645,489Z" fill="#1b0500" stroke="#1b0500" stroke-width="1.51"/><path d="M737,698L816,672L744,567Z" fill="#200501" stroke="#200501" stroke-width="1.51"/><path d="M737,698L744,567L678,582Z" fill="#1a0401" stroke="#1a0401" stroke-width="1.51"/><path d="M870,556L964,582L922,472Z" fill="#200501" stroke="#200501" stroke-width="1.51"/><path d="M618,597L654,641L678,582Z" fill="#210601" stroke="#210601" stroke-width="1.51"/><path d="M927,673L964,582L870,556Z" fill="#250602" stroke="#250602" stroke-width="1.51"/><path d="M922,472L1005,467L951,411Z" fill="#1a0401" stroke="#1a0401" stroke-width="1.51"/><path d="M964,582L1005,467L922,472Z" fill="#200502" stroke="#200502" stroke-width="1.51"/><path d="M951,411L950,299L855,326Z" fill="#250801" stroke="#250801" stroke-width="1.51"/><path d="M855,326L859,221L757,253Z" fill="#2a0a01" stroke="#2a0a01" stroke-width="1.51"/><path d="M1005,467L1006,415L951,411Z" fill="#1f0501" stroke="#1f0501" stroke-width="1.51"/><path d="M1012,352L950,299L951,411Z" fill="#270901" stroke="#270901" stroke-width="1.51"/><path d="M682,287L591,308L601,406Z" fill="#240900" stroke="#240900" stroke-width="1.51"/><path d="M601,406L535,393L593,464Z" fill="#1d0700" stroke="#1d0700" stroke-width="1.51"/><path d="M667,240L591,308L682,287Z" fill="#290b00" stroke="#290b00" stroke-width="1.51"/><path d="M654,641L737,698L678,582Z" fill="#200501" stroke="#200501" stroke-width="1.51"/><path d="M757,253L667,240L682,287Z" fill="#270a00" stroke="#270a00" stroke-width="1.51"/><path d="M950,299L859,221L855,326Z" fill="#2c0a01" stroke="#2c0a01" stroke-width="1.51"/><path d="M757,253L773,179L667,240Z" fill="#2a0b00" stroke="#2a0b00" stroke-width="1.51"/><path d="M591,308L535,393L601,406Z" fill="#240900" stroke="#240900" stroke-width="1.51"/><path d="M593,464L536,576L618,597Z" fill="#210700" stroke="#210700" stroke-width="1.51"/><path d="M1006,415L1012,352L951,411Z" fill="#240701" stroke="#240701" stroke-width="1.51"/><path d="M950,299L964,236L859,221Z" fill="#320a01" stroke="#320a01" stroke-width="1.51"/><path d="M1078,399L1012,352L1006,415Z" fill="#270801" stroke="#270801" stroke-width="1.51"/><path d="M816,672L927,673L870,556Z" fill="#250602" stroke="#250602" stroke-width="1.51"/><path d="M841,761L927,673L816,672Z" fill="#290702" stroke="#290702" stroke-width="1.51"/><path d="M737,698L759,721L816,672Z" fill="#240602" stroke="#240602" stroke-width="1.51"/><path d="M695,723L759,721L737,698Z" fill="#230602" stroke="#230602" stroke-width="1.51"/><path d="M618,597L568,682L654,641Z" fill="#260801" stroke="#260801" stroke-width="1.51"/><path d="M654,641L695,723L737,698Z" fill="#230602" stroke="#230602" stroke-width="1.51"/><path d="M481,495L536,576L593,464Z" fill="#230800" stroke="#230800" stroke-width="1.51"/><path d="M859,221L773,179L757,253Z" fill="#2f0b01" stroke="#2f0b01" stroke-width="1.51"/><path d="M568,682L695,723L654,641Z" fill="#270802" stroke="#270802" stroke-width="1.51"/><path d="M964,582L1043,560L1005,467Z" fill="#240602" stroke="#240602" stroke-width="1.51"/><path d="M1005,467L1078,472L1006,415Z" fill="#1f0501" stroke="#1f0501" stroke-width="1.51"/><path d="M1012,692L1043,560L964,582Z" fill="#2a0702" stroke="#2a0702" stroke-width="1.51"/><path d="M667,240L598,233L591,308Z" fill="#2e0b00" stroke="#2e0b00" stroke-width="1.51"/><path d="M591,308L500,334L535,393Z" fill="#290b00" stroke="#290b00" stroke-width="1.51"/><path d="M688,149L598,233L667,240Z" fill="#320b00" stroke="#320b00" stroke-width="1.51"/><path d="M1035,218L964,236L950,299Z" fill="#350902" stroke="#350902" stroke-width="1.51"/><path d="M859,221L873,170L773,179Z" fill="#350a01" stroke="#350a01" stroke-width="1.51"/><path d="M1043,560L1078,472L1005,467Z" fill="#240502" stroke="#240502" stroke-width="1.51"/><path d="M1012,352L1035,218L950,299Z" fill="#310902" stroke="#310902" stroke-width="1.51"/><path d="M535,393L481,495L593,464Z" fill="#1d0700" stroke="#1d0700" stroke-width="1.51"/><path d="M408,388L481,495L535,393Z" fill="#260a00" stroke="#260a00" stroke-width="1.51"/><path d="M964,236L873,170L859,221Z" fill="#360a02" stroke="#360a02" stroke-width="1.51"/><path d="M1078,472L1078,399L1006,415Z" fill="#230602" stroke="#230602" stroke-width="1.51"/><path d="M472,220L500,334L591,308Z" fill="#330c01" stroke="#330c01" stroke-width="1.51"/><path d="M534,657L568,682L618,597Z" fill="#2a0901" stroke="#2a0901" stroke-width="1.51"/><path d="M534,657L618,597L536,576Z" fill="#280901" stroke="#280901" stroke-width="1.51"/><path d="M882,821L841,761L768,840Z" fill="#270702" stroke="#270702" stroke-width="1.51"/><path d="M759,721L841,761L816,672Z" fill="#280602" stroke="#280602" stroke-width="1.51"/><path d="M927,673L1012,692L964,582Z" fill="#2b0703" stroke="#2b0703" stroke-width="1.51"/><path d="M451,594L534,657L536,576Z" fill="#2d0901" stroke="#2d0901" stroke-width="1.51"/><path d="M773,179L688,149L667,240Z" fill="#2f0c00" stroke="#2f0c00" stroke-width="1.51"/><path d="M785,50L688,149L773,179Z" fill="#320b01" stroke="#320b01" stroke-width="1.51"/><path d="M955,764L1012,692L927,673Z" fill="#300703" stroke="#300703" stroke-width="1.51"/><path d="M1043,560L1109,571L1078,472Z" fill="#280602" stroke="#280602" stroke-width="1.51"/><path d="M617,88L614,116L688,149Z" fill="#370b01" stroke="#370b01" stroke-width="1.51"/><path d="M964,236L958,167L873,170Z" fill="#3a0902" stroke="#3a0902" stroke-width="1.51"/><path d="M1035,218L958,167L964,236Z" fill="#3c0802" stroke="#3c0802" stroke-width="1.51"/><path d="M1012,692L1109,571L1043,560Z" fill="#2d0703" stroke="#2d0703" stroke-width="1.51"/><path d="M1184,389L1114,351L1078,399Z" fill="#2d0802" stroke="#2d0802" stroke-width="1.51"/><path d="M1119,254L1035,218L1012,352Z" fill="#360803" stroke="#360803" stroke-width="1.51"/><path d="M1078,399L1114,351L1012,352Z" fill="#2b0802" stroke="#2b0802" stroke-width="1.51"/><path d="M1184,389L1078,399L1078,472Z" fill="#270702" stroke="#270702" stroke-width="1.51"/><path d="M841,761L955,764L927,673Z" fill="#2f0703" stroke="#2f0703" stroke-width="1.51"/><path d="M1012,692L1125,694L1109,571Z" fill="#320603" stroke="#320603" stroke-width="1.51"/><path d="M386,468L451,594L481,495Z" fill="#2b0b01" stroke="#2b0b01" stroke-width="1.51"/><path d="M481,495L451,594L536,576Z" fill="#2a0a01" stroke="#2a0a01" stroke-width="1.51"/><path d="M568,682L564,753L695,723Z" fill="#2d0802" stroke="#2d0802" stroke-width="1.51"/><path d="M768,840L841,761L759,721Z" fill="#280703" stroke="#280703" stroke-width="1.51"/><path d="M497,736L564,753L568,682Z" fill="#330802" stroke="#330802" stroke-width="1.51"/><path d="M497,736L568,682L534,657Z" fill="#310902" stroke="#310902" stroke-width="1.51"/><path d="M500,334L408,388L535,393Z" fill="#2c0b00" stroke="#2c0b00" stroke-width="1.51"/><path d="M397,296L408,388L500,334Z" fill="#350b01" stroke="#350b01" stroke-width="1.51"/><path d="M472,220L591,308L598,233Z" fill="#350b01" stroke="#350b01" stroke-width="1.51"/><path d="M768,840L759,721L695,723Z" fill="#260702" stroke="#260702" stroke-width="1.51"/><path d="M841,761L882,821L955,764Z" fill="#2d0703" stroke="#2d0703" stroke-width="1.51"/><path d="M688,149L614,116L598,233Z" fill="#390b01" stroke="#390b01" stroke-width="1.51"/><path d="M785,50L773,179L857,57Z" fill="#310b01" stroke="#310b01" stroke-width="1.51"/><path d="M666,826L768,840L695,723Z" fill="#230602" stroke="#230602" stroke-width="1.51"/><path d="M564,753L666,826L695,723Z" fill="#2b0802" stroke="#2b0802" stroke-width="1.51"/><path d="M521,129L472,220L598,233Z" fill="#3f0b01" stroke="#3f0b01" stroke-width="1.51"/><path d="M994,840L1050,740L955,764Z" fill="#330603" stroke="#330603" stroke-width="1.51"/><path d="M955,764L1050,740L1012,692Z" fill="#340604" stroke="#340604" stroke-width="1.51"/><path d="M408,388L386,468L481,495Z" fill="#270b00" stroke="#270b00" stroke-width="1.51"/><path d="M1043,36L915,79L958,167Z" fill="#3b0802" stroke="#3b0802" stroke-width="1.51"/><path d="M1114,351L1119,254L1012,352Z" fill="#320902" stroke="#320902" stroke-width="1.51"/><path d="M1191,287L1119,254L1114,351Z" fill="#390703" stroke="#390703" stroke-width="1.51"/><path d="M564,753L611,857L666,826Z" fill="#2a0902" stroke="#2a0902" stroke-width="1.51"/><path d="M428,718L497,736L534,657Z" fill="#370803" stroke="#370803" stroke-width="1.51"/><path d="M404,651L534,657L451,594Z" fill="#330902" stroke="#330902" stroke-width="1.51"/><path d="M958,167L915,79L873,170Z" fill="#3e0802" stroke="#3e0802" stroke-width="1.51"/><path d="M1049,153L958,167L1035,218Z" fill="#410702" stroke="#410702" stroke-width="1.51"/><path d="M614,116L521,129L598,233Z" fill="#3f0a01" stroke="#3f0a01" stroke-width="1.51"/><path d="M696,40L617,88L688,149Z" fill="#310c00" stroke="#310c00" stroke-width="1.51"/><path d="M1099,149L1049,153L1035,218Z" fill="#450503" stroke="#450503" stroke-width="1.51"/><path d="M857,57L773,179L873,170Z" fill="#390a01" stroke="#390a01" stroke-width="1.51"/><path d="M915,79L857,57L873,170Z" fill="#370a02" stroke="#370a02" stroke-width="1.51"/><path d="M1207,513L1184,389L1078,472Z" fill="#260602" stroke="#260602" stroke-width="1.51"/><path d="M1207,513L1078,472L1109,571Z" fill="#2a0703" stroke="#2a0703" stroke-width="1.51"/><path d="M420,239L397,296L500,334Z" fill="#3b0b01" stroke="#3b0b01" stroke-width="1.51"/><path d="M314,435L351,493L386,468Z" fill="#2f0b00" stroke="#2f0b00" stroke-width="1.51"/><path d="M617,88L521,129L614,116Z" fill="#3b0b01" stroke="#3b0b01" stroke-width="1.51"/><path d="M472,220L420,239L500,334Z" fill="#3c0b01" stroke="#3c0b01" stroke-width="1.51"/><path d="M1050,740L1125,694L1012,692Z" fill="#350604" stroke="#350604" stroke-width="1.51"/><path d="M426,171L420,239L472,220Z" fill="#460901" stroke="#460901" stroke-width="1.51"/><path d="M303,581L404,651L451,594Z" fill="#380902" stroke="#380902" stroke-width="1.51"/><path d="M770,-30L696,40L785,50Z" fill="#250900" stroke="#250900" stroke-width="1.51"/><path d="M785,50L696,40L688,149Z" fill="#2a0b00" stroke="#2a0b00" stroke-width="1.51"/><path d="M617,88L483,67L521,129Z" fill="#3e0a01" stroke="#3e0a01" stroke-width="1.51"/><path d="M386,468L351,493L451,594Z" fill="#2f0b01" stroke="#2f0b01" stroke-width="1.51"/><path d="M314,435L386,468L408,388Z" fill="#2f0c00" stroke="#2f0c00" stroke-width="1.51"/><path d="M1214,560L1207,513L1109,571Z" fill="#2c0703" stroke="#2c0703" stroke-width="1.51"/><path d="M487,832L611,857L564,753Z" fill="#2f0902" stroke="#2f0902" stroke-width="1.51"/><path d="M666,826L734,892L768,840Z" fill="#1e0401" stroke="#1e0401" stroke-width="1.51"/><path d="M487,832L564,753L497,736Z" fill="#360802" stroke="#360802" stroke-width="1.51"/><path d="M1125,694L1214,560L1109,571Z" fill="#320603" stroke="#320603" stroke-width="1.51"/><path d="M1050,740L1125,723L1125,694Z" fill="#390404" stroke="#390404" stroke-width="1.51"/><path d="M1079,821L1125,723L1050,740Z" fill="#3a0405" stroke="#3a0405" stroke-width="1.51"/><path d="M664,901L734,892L666,826Z" fill="#1f0501" stroke="#1f0501" stroke-width="1.51"/><path d="M768,840L823,954L882,821Z" fill="#220502" stroke="#220502" stroke-width="1.51"/><path d="M949,864L994,840L955,764Z" fill="#2e0703" stroke="#2e0703" stroke-width="1.51"/><path d="M404,651L428,718L534,657Z" fill="#370802" stroke="#370802" stroke-width="1.51"/><path d="M949,864L955,764L882,821Z" fill="#2c0703" stroke="#2c0703" stroke-width="1.51"/><path d="M823,954L949,864L882,821Z" fill="#250602" stroke="#250602" stroke-width="1.51"/><path d="M1119,254L1099,149L1035,218Z" fill="#420603" stroke="#420603" stroke-width="1.51"/><path d="M991,-31L914,-5L915,79Z" fill="#2f0a01" stroke="#2f0a01" stroke-width="1.51"/><path d="M1199,145L1099,149L1119,254Z" fill="#480403" stroke="#480403" stroke-width="1.51"/><path d="M1184,389L1191,287L1114,351Z" fill="#330902" stroke="#330902" stroke-width="1.51"/><path d="M1314,297L1191,287L1184,389Z" fill="#310802" stroke="#310802" stroke-width="1.51"/><path d="M1213,697L1214,560L1125,694Z" fill="#340604" stroke="#340604" stroke-width="1.51"/><path d="M1267,208L1195,260L1314,297Z" fill="#380803" stroke="#380803" stroke-width="1.51"/><path d="M301,322L314,435L408,388Z" fill="#370b01" stroke="#370b01" stroke-width="1.51"/><path d="M318,218L301,322L397,296Z" fill="#460901" stroke="#460901" stroke-width="1.51"/><path d="M521,129L426,171L472,220Z" fill="#470801" stroke="#470801" stroke-width="1.51"/><path d="M483,67L426,171L521,129Z" fill="#480801" stroke="#480801" stroke-width="1.51"/><path d="M612,952L664,901L611,857Z" fill="#220601" stroke="#220601" stroke-width="1.51"/><path d="M611,857L664,901L666,826Z" fill="#230601" stroke="#230601" stroke-width="1.51"/><path d="M1191,287L1195,260L1119,254Z" fill="#3d0703" stroke="#3d0703" stroke-width="1.51"/><path d="M1270,462L1184,389L1207,513Z" fill="#230502" stroke="#230502" stroke-width="1.51"/><path d="M301,322L408,388L397,296Z" fill="#3c0b01" stroke="#3c0b01" stroke-width="1.51"/><path d="M303,581L353,665L404,651Z" fill="#3d0802" stroke="#3d0802" stroke-width="1.51"/><path d="M404,651L353,665L428,718Z" fill="#3d0703" stroke="#3d0703" stroke-width="1.51"/><path d="M1197,734L1213,697L1125,694Z" fill="#390405" stroke="#390405" stroke-width="1.51"/><path d="M994,840L1079,821L1050,740Z" fill="#340603" stroke="#340603" stroke-width="1.51"/><path d="M1005,914L1079,821L994,840Z" fill="#2e0703" stroke="#2e0703" stroke-width="1.51"/><path d="M420,810L487,832L497,736Z" fill="#390803" stroke="#390803" stroke-width="1.51"/><path d="M303,581L451,594L351,493Z" fill="#350a02" stroke="#350a02" stroke-width="1.51"/><path d="M420,810L497,736L428,718Z" fill="#3f0603" stroke="#3f0603" stroke-width="1.51"/><path d="M915,79L914,-5L857,57Z" fill="#300a01" stroke="#300a01" stroke-width="1.51"/><path d="M821,-47L770,-30L785,50Z" fill="#240901" stroke="#240901" stroke-width="1.51"/><path d="M1043,36L958,167L1049,153Z" fill="#420702" stroke="#420702" stroke-width="1.51"/><path d="M821,-47L785,50L857,57Z" fill="#290a01" stroke="#290a01" stroke-width="1.51"/><path d="M696,40L597,5L617,88Z" fill="#2d0b00" stroke="#2d0b00" stroke-width="1.51"/><path d="M673,-46L597,5L696,40Z" fill="#260a00" stroke="#260a00" stroke-width="1.51"/><path d="M597,5L483,67L617,88Z" fill="#350b01" stroke="#350b01" stroke-width="1.51"/><path d="M1214,560L1270,462L1207,513Z" fill="#260702" stroke="#260702" stroke-width="1.51"/><path d="M1261,611L1270,462L1214,560Z" fill="#280702" stroke="#280702" stroke-width="1.51"/><path d="M269,510L303,581L351,493Z" fill="#380a01" stroke="#380a01" stroke-width="1.51"/><path d="M1197,734L1125,694L1125,723Z" fill="#3c0305" stroke="#3c0305" stroke-width="1.51"/><path d="M314,435L269,510L351,493Z" fill="#340b01" stroke="#340b01" stroke-width="1.51"/><path d="M318,218L397,296L420,239Z" fill="#460901" stroke="#460901" stroke-width="1.51"/><path d="M318,218L420,239L426,171Z" fill="#4b0801" stroke="#4b0801" stroke-width="1.51"/><path d="M1107,76L1049,153L1099,149Z" fill="#470503" stroke="#470503" stroke-width="1.51"/><path d="M1107,76L1043,36L1049,153Z" fill="#410703" stroke="#410703" stroke-width="1.51"/><path d="M792,1008L823,954L734,892Z" fill="#180301" stroke="#180301" stroke-width="1.51"/><path d="M734,892L823,954L768,840Z" fill="#1d0401" stroke="#1d0401" stroke-width="1.51"/><path d="M949,864L1005,914L994,840Z" fill="#2b0703" stroke="#2b0703" stroke-width="1.51"/><path d="M1270,462L1279,437L1184,389Z" fill="#230602" stroke="#230602" stroke-width="1.51"/><path d="M1361,472L1279,437L1270,462Z" fill="#1e0401" stroke="#1e0401" stroke-width="1.51"/><path d="M1207,821L1197,734L1125,723Z" fill="#3d0305" stroke="#3d0305" stroke-width="1.51"/><path d="M1194,87L1107,76L1099,149Z" fill="#470403" stroke="#470403" stroke-width="1.51"/><path d="M496,915L612,952L611,857Z" fill="#260801" stroke="#260801" stroke-width="1.51"/><path d="M356,765L420,810L428,718Z" fill="#420603" stroke="#420603" stroke-width="1.51"/><path d="M356,765L428,718L353,665Z" fill="#420503" stroke="#420503" stroke-width="1.51"/><path d="M1252,674L1261,611L1213,697Z" fill="#310703" stroke="#310703" stroke-width="1.51"/><path d="M1213,697L1261,611L1214,560Z" fill="#2f0703" stroke="#2f0703" stroke-width="1.51"/><path d="M770,-30L673,-46L696,40Z" fill="#200700" stroke="#200700" stroke-width="1.51"/><path d="M914,-5L821,-47L857,57Z" fill="#290901" stroke="#290901" stroke-width="1.51"/><path d="M856,-93L821,-47L914,-5Z" fill="#230800" stroke="#230800" stroke-width="1.51"/><path d="M947,945L1005,914L949,864Z" fill="#270702" stroke="#270702" stroke-width="1.51"/><path d="M1079,821L1207,821L1125,723Z" fill="#3b0405" stroke="#3b0405" stroke-width="1.51"/><path d="M258,420L269,510L314,435Z" fill="#330b01" stroke="#330b01" stroke-width="1.51"/><path d="M402,4L407,72L483,67Z" fill="#410a01" stroke="#410a01" stroke-width="1.51"/><path d="M792,-125L673,-46L770,-30Z" fill="#190500" stroke="#190500" stroke-width="1.51"/><path d="M823,954L947,945L949,864Z" fill="#230502" stroke="#230502" stroke-width="1.51"/><path d="M314,127L318,218L426,171Z" fill="#540501" stroke="#540501" stroke-width="1.51"/><path d="M301,322L258,420L314,435Z" fill="#3b0b01" stroke="#3b0b01" stroke-width="1.51"/><path d="M1267,780L1252,674L1213,697Z" fill="#360504" stroke="#360504" stroke-width="1.51"/><path d="M700,1017L792,1008L734,892Z" fill="#120200" stroke="#120200" stroke-width="1.51"/><path d="M496,915L611,857L487,832Z" fill="#2c0a01" stroke="#2c0a01" stroke-width="1.51"/><path d="M233,294L258,420L301,322Z" fill="#3f0a01" stroke="#3f0a01" stroke-width="1.51"/><path d="M238,674L353,665L303,581Z" fill="#430702" stroke="#430702" stroke-width="1.51"/><path d="M238,674L356,765L353,665Z" fill="#470503" stroke="#470503" stroke-width="1.51"/><path d="M431,940L496,915L487,832Z" fill="#300a01" stroke="#300a01" stroke-width="1.51"/><path d="M1267,208L1199,145L1195,260Z" fill="#420603" stroke="#420603" stroke-width="1.51"/><path d="M1195,260L1199,145L1119,254Z" fill="#430503" stroke="#430503" stroke-width="1.51"/><path d="M1043,36L991,-31L915,79Z" fill="#330902" stroke="#330902" stroke-width="1.51"/><path d="M1117,4L991,-31L1043,36Z" fill="#340803" stroke="#340803" stroke-width="1.51"/><path d="M1117,4L1043,36L1107,76Z" fill="#3b0703" stroke="#3b0703" stroke-width="1.51"/><path d="M483,67L407,72L426,171Z" fill="#480801" stroke="#480801" stroke-width="1.51"/><path d="M507,-22L483,67L597,5Z" fill="#340c01" stroke="#340c01" stroke-width="1.51"/><path d="M431,940L487,832L420,810Z" fill="#350902" stroke="#350902" stroke-width="1.51"/><path d="M823,954L857,990L947,945Z" fill="#1e0401" stroke="#1e0401" stroke-width="1.51"/><path d="M792,1008L857,990L823,954Z" fill="#180301" stroke="#180301" stroke-width="1.51"/><path d="M1314,297L1195,260L1191,287Z" fill="#370803" stroke="#370803" stroke-width="1.51"/><path d="M700,1017L734,892L664,901Z" fill="#180301" stroke="#180301" stroke-width="1.51"/><path d="M610,-112L507,-22L597,5Z" fill="#280b00" stroke="#280b00" stroke-width="1.51"/><path d="M947,945L992,989L1005,914Z" fill="#250602" stroke="#250602" stroke-width="1.51"/><path d="M857,990L913,993L947,945Z" fill="#1e0401" stroke="#1e0401" stroke-width="1.51"/><path d="M792,1008L913,993L857,990Z" fill="#190301" stroke="#190301" stroke-width="1.51"/><path d="M821,-47L792,-125L770,-30Z" fill="#1c0600" stroke="#1c0600" stroke-width="1.51"/><path d="M673,-46L610,-112L597,5Z" fill="#230900" stroke="#230900" stroke-width="1.51"/><path d="M961,-122L856,-93L914,-5Z" fill="#230701" stroke="#230701" stroke-width="1.51"/><path d="M1199,145L1194,87L1099,149Z" fill="#4b0303" stroke="#4b0303" stroke-width="1.51"/><path d="M1253,140L1194,87L1199,145Z" fill="#470503" stroke="#470503" stroke-width="1.51"/><path d="M1361,472L1270,462L1378,547Z" fill="#1f0502" stroke="#1f0502" stroke-width="1.51"/><path d="M1367,398L1314,297L1279,437Z" fill="#260701" stroke="#260701" stroke-width="1.51"/><path d="M1279,437L1314,297L1184,389Z" fill="#290802" stroke="#290802" stroke-width="1.51"/><path d="M1197,734L1267,780L1213,697Z" fill="#390405" stroke="#390405" stroke-width="1.51"/><path d="M1116,912L1207,821L1079,821Z" fill="#350604" stroke="#350604" stroke-width="1.51"/><path d="M1116,912L1079,821L1005,914Z" fill="#2f0703" stroke="#2f0703" stroke-width="1.51"/><path d="M612,952L700,1017L664,901Z" fill="#1a0400" stroke="#1a0400" stroke-width="1.51"/><path d="M571,1036L700,1017L612,952Z" fill="#180500" stroke="#180500" stroke-width="1.51"/><path d="M1194,87L1117,4L1107,76Z" fill="#410603" stroke="#410603" stroke-width="1.51"/><path d="M991,-31L961,-122L914,-5Z" fill="#280901" stroke="#280901" stroke-width="1.51"/><path d="M1090,981L1116,912L1005,914Z" fill="#2b0703" stroke="#2b0703" stroke-width="1.51"/><path d="M214,601L303,581L269,510Z" fill="#3b0a02" stroke="#3b0a02" stroke-width="1.51"/><path d="M318,218L233,294L301,322Z" fill="#4b0701" stroke="#4b0701" stroke-width="1.51"/><path d="M211,263L233,294L318,218Z" fill="#4a0701" stroke="#4a0701" stroke-width="1.51"/><path d="M1194,87L1186,-48L1117,4Z" fill="#3b0703" stroke="#3b0703" stroke-width="1.51"/><path d="M1267,208L1253,140L1199,145Z" fill="#460503" stroke="#460503" stroke-width="1.51"/><path d="M1369,171L1253,140L1267,208Z" fill="#420702" stroke="#420702" stroke-width="1.51"/><path d="M407,72L314,127L426,171Z" fill="#510601" stroke="#510601" stroke-width="1.51"/><path d="M308,60L314,127L407,72Z" fill="#4f0601" stroke="#4f0601" stroke-width="1.51"/><path d="M913,993L992,989L947,945Z" fill="#210501" stroke="#210501" stroke-width="1.51"/><path d="M1170,1039L992,989L913,993Z" fill="#230602" stroke="#230602" stroke-width="1.51"/><path d="M1090,981L992,989L1170,1039Z" fill="#260602" stroke="#260602" stroke-width="1.51"/><path d="M1378,547L1270,462L1261,611Z" fill="#250602" stroke="#250602" stroke-width="1.51"/><path d="M1378,547L1261,611L1349,668Z" fill="#280702" stroke="#280702" stroke-width="1.51"/><path d="M856,-93L792,-125L821,-47Z" fill="#1b0500" stroke="#1b0500" stroke-width="1.51"/><path d="M961,-122L792,-125L856,-93Z" fill="#1a0401" stroke="#1a0401" stroke-width="1.51"/><path d="M325,924L431,940L420,810Z" fill="#380902" stroke="#380902" stroke-width="1.51"/><path d="M214,601L238,674L303,581Z" fill="#3f0802" stroke="#3f0802" stroke-width="1.51"/><path d="M214,601L269,510L144,490Z" fill="#330b01" stroke="#330b01" stroke-width="1.51"/><path d="M144,490L269,510L258,420Z" fill="#2f0b00" stroke="#2f0b00" stroke-width="1.51"/><path d="M1207,821L1267,780L1197,734Z" fill="#380504" stroke="#380504" stroke-width="1.51"/><path d="M1311,854L1267,780L1207,821Z" fill="#320603" stroke="#320603" stroke-width="1.51"/><path d="M792,-125L646,-113L673,-46Z" fill="#140400" stroke="#140400" stroke-width="1.51"/><path d="M507,-22L402,4L483,67Z" fill="#3a0b01" stroke="#3a0b01" stroke-width="1.51"/><path d="M359,-8L402,4L438,-91Z" fill="#390b01" stroke="#390b01" stroke-width="1.51"/><path d="M1361,472L1367,398L1279,437Z" fill="#1d0401" stroke="#1d0401" stroke-width="1.51"/><path d="M1314,297L1357,223L1267,208Z" fill="#370902" stroke="#370902" stroke-width="1.51"/><path d="M646,-113L610,-112L673,-46Z" fill="#1c0600" stroke="#1c0600" stroke-width="1.51"/><path d="M490,-125L610,-112L646,-113Z" fill="#1e0700" stroke="#1e0700" stroke-width="1.51"/><path d="M496,915L529,1007L612,952Z" fill="#250800" stroke="#250800" stroke-width="1.51"/><path d="M314,835L420,810L356,765Z" fill="#420603" stroke="#420603" stroke-width="1.51"/><path d="M253,843L314,835L212,781Z" fill="#450503" stroke="#450503" stroke-width="1.51"/><path d="M220,132L211,263L318,218Z" fill="#520601" stroke="#520601" stroke-width="1.51"/><path d="M133,413L144,490L258,420Z" fill="#2b0b00" stroke="#2b0b00" stroke-width="1.51"/><path d="M220,132L318,218L314,127Z" fill="#5c0101" stroke="#5c0101" stroke-width="1.51"/><path d="M428,994L529,1007L496,915Z" fill="#280a01" stroke="#280a01" stroke-width="1.51"/><path d="M1117,4L1011,-102L991,-31Z" fill="#2d0901" stroke="#2d0901" stroke-width="1.51"/><path d="M1349,668L1261,611L1252,674Z" fill="#2e0703" stroke="#2e0703" stroke-width="1.51"/><path d="M1361,472L1466,405L1367,398Z" fill="#1b0401" stroke="#1b0401" stroke-width="1.51"/><path d="M1011,-102L961,-122L991,-31Z" fill="#250701" stroke="#250701" stroke-width="1.51"/><path d="M1267,780L1349,668L1252,674Z" fill="#320603" stroke="#320603" stroke-width="1.51"/><path d="M992,989L1090,981L1005,914Z" fill="#260702" stroke="#260702" stroke-width="1.51"/><path d="M1116,912L1225,896L1207,821Z" fill="#320704" stroke="#320704" stroke-width="1.51"/><path d="M1170,1039L913,993L792,1008Z" fill="#1e0501" stroke="#1e0501" stroke-width="1.51"/><path d="M700,1017L1170,1039L792,1008Z" fill="#190301" stroke="#190301" stroke-width="1.51"/><path d="M529,1007L571,1036L612,952Z" fill="#1f0600" stroke="#1f0600" stroke-width="1.51"/><path d="M428,994L571,1036L529,1007Z" fill="#230801" stroke="#230801" stroke-width="1.51"/><path d="M359,-8L308,60L407,72Z" fill="#480801" stroke="#480801" stroke-width="1.51"/><path d="M1388,318L1314,297L1367,398Z" fill="#280901" stroke="#280901" stroke-width="1.51"/><path d="M1388,318L1357,223L1314,297Z" fill="#300a01" stroke="#300a01" stroke-width="1.51"/><path d="M1279,28L1186,-48L1194,87Z" fill="#390803" stroke="#390803" stroke-width="1.51"/><path d="M1117,4L1136,-113L1011,-102Z" fill="#2d0902" stroke="#2d0902" stroke-width="1.51"/><path d="M1466,405L1388,318L1367,398Z" fill="#220701" stroke="#220701" stroke-width="1.51"/><path d="M1267,780L1354,783L1349,668Z" fill="#340604" stroke="#340604" stroke-width="1.51"/><path d="M1170,1039L1225,896L1116,912Z" fill="#2d0703" stroke="#2d0703" stroke-width="1.51"/><path d="M402,4L359,-8L407,72Z" fill="#420a01" stroke="#420a01" stroke-width="1.51"/><path d="M438,-91L402,4L507,-22Z" fill="#340b01" stroke="#340b01" stroke-width="1.51"/><path d="M212,781L314,835L356,765Z" fill="#4a0403" stroke="#4a0403" stroke-width="1.51"/><path d="M214,601L188,682L238,674Z" fill="#3e0702" stroke="#3e0702" stroke-width="1.51"/><path d="M156,592L188,682L214,601Z" fill="#390902" stroke="#390902" stroke-width="1.51"/><path d="M133,413L258,420L233,294Z" fill="#360c01" stroke="#360c01" stroke-width="1.51"/><path d="M144,490L156,592L214,601Z" fill="#320a01" stroke="#320a01" stroke-width="1.51"/><path d="M431,940L428,994L496,915Z" fill="#2d0a01" stroke="#2d0a01" stroke-width="1.51"/><path d="M344,1013L428,994L431,940Z" fill="#2f0b01" stroke="#2f0b01" stroke-width="1.51"/><path d="M325,924L420,810L314,835Z" fill="#3f0802" stroke="#3f0802" stroke-width="1.51"/><path d="M490,-125L438,-91L507,-22Z" fill="#2b0b00" stroke="#2b0b00" stroke-width="1.51"/><path d="M125,305L133,413L233,294Z" fill="#370b01" stroke="#370b01" stroke-width="1.51"/><path d="M308,60L220,132L314,127Z" fill="#570301" stroke="#570301" stroke-width="1.51"/><path d="M248,33L220,132L308,60Z" fill="#500601" stroke="#500601" stroke-width="1.51"/><path d="M248,33L308,60L277,-5Z" fill="#4c0801" stroke="#4c0801" stroke-width="1.51"/><path d="M125,305L233,294L211,263Z" fill="#400a01" stroke="#400a01" stroke-width="1.51"/><path d="M144,490L101,515L156,592Z" fill="#2c0a01" stroke="#2c0a01" stroke-width="1.51"/><path d="M1279,28L1194,87L1253,140Z" fill="#400703" stroke="#400703" stroke-width="1.51"/><path d="M1011,-102L1136,-113L961,-122Z" fill="#250701" stroke="#250701" stroke-width="1.51"/><path d="M792,-125L490,-125L646,-113Z" fill="#170500" stroke="#170500" stroke-width="1.51"/><path d="M610,-112L490,-125L507,-22Z" fill="#260a00" stroke="#260a00" stroke-width="1.51"/><path d="M253,843L325,924L314,835Z" fill="#430702" stroke="#430702" stroke-width="1.51"/><path d="M212,781L356,765L238,674Z" fill="#4b0303" stroke="#4b0303" stroke-width="1.51"/><path d="M188,682L212,781L238,674Z" fill="#430603" stroke="#430603" stroke-width="1.51"/><path d="M137,759L212,781L188,682Z" fill="#420503" stroke="#420503" stroke-width="1.51"/><path d="M1357,223L1369,171L1267,208Z" fill="#3c0802" stroke="#3c0802" stroke-width="1.51"/><path d="M1484,226L1369,171L1357,223Z" fill="#360a02" stroke="#360a02" stroke-width="1.51"/><path d="M1364,49L1279,28L1253,140Z" fill="#3a0802" stroke="#3a0802" stroke-width="1.51"/><path d="M1355,806L1354,783L1267,780Z" fill="#310703" stroke="#310703" stroke-width="1.51"/><path d="M1479,590L1459,491L1378,547Z" fill="#1d0401" stroke="#1d0401" stroke-width="1.51"/><path d="M1225,896L1311,854L1207,821Z" fill="#300703" stroke="#300703" stroke-width="1.51"/><path d="M1308,922L1311,854L1225,896Z" fill="#2b0702" stroke="#2b0702" stroke-width="1.51"/><path d="M173,143L141,248L211,263Z" fill="#480901" stroke="#480901" stroke-width="1.51"/><path d="M141,248L125,305L211,263Z" fill="#3f0a01" stroke="#3f0a01" stroke-width="1.51"/><path d="M1173,-112L1136,-113L1186,-48Z" fill="#2c0802" stroke="#2c0802" stroke-width="1.51"/><path d="M1186,-48L1136,-113L1117,4Z" fill="#320802" stroke="#320802" stroke-width="1.51"/><path d="M1311,854L1355,806L1267,780Z" fill="#300703" stroke="#300703" stroke-width="1.51"/><path d="M1434,670L1378,547L1349,668Z" fill="#270702" stroke="#270702" stroke-width="1.51"/><path d="M277,-5L359,-8L303,-143Z" fill="#3f0a01" stroke="#3f0a01" stroke-width="1.51"/><path d="M277,-5L308,60L359,-8Z" fill="#490801" stroke="#490801" stroke-width="1.51"/><path d="M220,132L173,143L211,263Z" fill="#500601" stroke="#500601" stroke-width="1.51"/><path d="M49,688L137,759L188,682Z" fill="#3a0703" stroke="#3a0703" stroke-width="1.51"/><path d="M133,413L101,515L144,490Z" fill="#270a00" stroke="#270a00" stroke-width="1.51"/><path d="M73,384L101,515L133,413Z" fill="#240900" stroke="#240900" stroke-width="1.51"/><path d="M1378,547L1459,491L1361,472Z" fill="#1c0401" stroke="#1c0401" stroke-width="1.51"/><path d="M1388,318L1451,288L1357,223Z" fill="#2d0a01" stroke="#2d0a01" stroke-width="1.51"/><path d="M1434,670L1349,668L1354,783Z" fill="#2e0703" stroke="#2e0703" stroke-width="1.51"/><path d="M303,-143L359,-8L438,-91Z" fill="#360c01" stroke="#360c01" stroke-width="1.51"/><path d="M189,74L173,143L220,132Z" fill="#500601" stroke="#500601" stroke-width="1.51"/><path d="M1479,756L1434,670L1354,783Z" fill="#2d0703" stroke="#2d0703" stroke-width="1.51"/><path d="M1459,491L1466,405L1361,472Z" fill="#150201" stroke="#150201" stroke-width="1.51"/><path d="M1136,-113L1313,-141L961,-122Z" fill="#280702" stroke="#280702" stroke-width="1.51"/><path d="M1285,-42L1173,-112L1186,-48Z" fill="#2d0902" stroke="#2d0902" stroke-width="1.51"/><path d="M1364,-34L1285,-42L1279,28Z" fill="#2e0a01" stroke="#2e0a01" stroke-width="1.51"/><path d="M1466,405L1451,288L1388,318Z" fill="#240801" stroke="#240801" stroke-width="1.51"/><path d="M325,924L344,1013L431,940Z" fill="#340a01" stroke="#340a01" stroke-width="1.51"/><path d="M253,843L268,936L325,924Z" fill="#400802" stroke="#400802" stroke-width="1.51"/><path d="M185,846L268,936L253,843Z" fill="#3e0802" stroke="#3e0802" stroke-width="1.51"/><path d="M185,846L253,843L212,781Z" fill="#410603" stroke="#410603" stroke-width="1.51"/><path d="M1090,981L1170,1039L1116,912Z" fill="#2a0703" stroke="#2a0703" stroke-width="1.51"/><path d="M1311,854L1361,918L1355,806Z" fill="#2a0703" stroke="#2a0703" stroke-width="1.51"/><path d="M571,1036L1170,1039L700,1017Z" fill="#110200" stroke="#110200" stroke-width="1.51"/><path d="M248,33L189,74L220,132Z" fill="#4d0701" stroke="#4d0701" stroke-width="1.51"/><path d="M56,315L125,305L141,248Z" fill="#380b01" stroke="#380b01" stroke-width="1.51"/><path d="M56,315L73,384L125,305Z" fill="#300b00" stroke="#300b00" stroke-width="1.51"/><path d="M90,65L189,74L137,-15Z" fill="#400a01" stroke="#400a01" stroke-width="1.51"/><path d="M1355,806L1428,844L1354,783Z" fill="#2d0703" stroke="#2d0703" stroke-width="1.51"/><path d="M1252,1019L1308,922L1225,896Z" fill="#280602" stroke="#280602" stroke-width="1.51"/><path d="M268,936L344,1013L325,924Z" fill="#390a01" stroke="#390a01" stroke-width="1.51"/><path d="M428,994L344,1013L571,1036Z" fill="#280a01" stroke="#280a01" stroke-width="1.51"/><path d="M49,688L188,682L156,592Z" fill="#360902" stroke="#360902" stroke-width="1.51"/><path d="M125,305L73,384L133,413Z" fill="#2e0b00" stroke="#2e0b00" stroke-width="1.51"/><path d="M101,515L64,601L156,592Z" fill="#2d0a01" stroke="#2d0a01" stroke-width="1.51"/><path d="M56,315L141,248L44,217Z" fill="#390b01" stroke="#390b01" stroke-width="1.51"/><path d="M137,759L185,846L212,781Z" fill="#3f0603" stroke="#3f0603" stroke-width="1.51"/><path d="M1279,28L1285,-42L1186,-48Z" fill="#310902" stroke="#310902" stroke-width="1.51"/><path d="M1364,49L1253,140L1369,171Z" fill="#3f0802" stroke="#3f0802" stroke-width="1.51"/><path d="M1434,670L1479,590L1378,547Z" fill="#230502" stroke="#230502" stroke-width="1.51"/><path d="M1459,491L1523,401L1466,405Z" fill="#120300" stroke="#120300" stroke-width="1.51"/><path d="M1565,644L1479,590L1434,670Z" fill="#220502" stroke="#220502" stroke-width="1.51"/><path d="M1432,125L1364,49L1369,171Z" fill="#3b0902" stroke="#3b0902" stroke-width="1.51"/><path d="M9,488L64,601L101,515Z" fill="#260900" stroke="#260900" stroke-width="1.51"/><path d="M1484,226L1432,125L1369,171Z" fill="#390a02" stroke="#390a02" stroke-width="1.51"/><path d="M1364,49L1364,-34L1279,28Z" fill="#300a02" stroke="#300a02" stroke-width="1.51"/><path d="M1484,226L1357,223L1451,288Z" fill="#300a01" stroke="#300a01" stroke-width="1.51"/><path d="M1170,1039L1252,1019L1225,896Z" fill="#280702" stroke="#280702" stroke-width="1.51"/><path d="M73,384L9,488L101,515Z" fill="#200800" stroke="#200800" stroke-width="1.51"/><path d="M82,170L141,248L173,143Z" fill="#490801" stroke="#490801" stroke-width="1.51"/><path d="M1523,401L1451,288L1466,405Z" fill="#1e0600" stroke="#1e0600" stroke-width="1.51"/><path d="M1517,236L1484,226L1451,288Z" fill="#2c0b01" stroke="#2c0b01" stroke-width="1.51"/><path d="M1336,1027L1361,918L1308,922Z" fill="#230602" stroke="#230602" stroke-width="1.51"/><path d="M1308,922L1361,918L1311,854Z" fill="#280702" stroke="#280702" stroke-width="1.51"/><path d="M1567,467L1523,401L1459,491Z" fill="#0a0100" stroke="#0a0100" stroke-width="1.51"/><path d="M90,65L82,170L173,143Z" fill="#4a0801" stroke="#4a0801" stroke-width="1.51"/><path d="M90,65L173,143L189,74Z" fill="#480801" stroke="#480801" stroke-width="1.51"/><path d="M1361,918L1428,844L1355,806Z" fill="#280702" stroke="#280702" stroke-width="1.51"/><path d="M1479,590L1558,550L1459,491Z" fill="#190301" stroke="#190301" stroke-width="1.51"/><path d="M1428,844L1479,756L1354,783Z" fill="#2b0703" stroke="#2b0703" stroke-width="1.51"/><path d="M1458,68L1364,49L1432,125Z" fill="#340a02" stroke="#340a02" stroke-width="1.51"/><path d="M1425,-16L1364,-34L1364,49Z" fill="#2c0a01" stroke="#2c0a01" stroke-width="1.51"/><path d="M1285,-42L1313,-141L1173,-112Z" fill="#270702" stroke="#270702" stroke-width="1.51"/><path d="M76,864L150,903L185,846Z" fill="#350902" stroke="#350902" stroke-width="1.51"/><path d="M64,601L49,688L156,592Z" fill="#300a02" stroke="#300a02" stroke-width="1.51"/><path d="M-8,685L49,688L64,601Z" fill="#2e0901" stroke="#2e0901" stroke-width="1.51"/><path d="M137,-15L189,74L248,33Z" fill="#430a01" stroke="#430a01" stroke-width="1.51"/><path d="M490,-125L303,-143L438,-91Z" fill="#2d0c00" stroke="#2d0c00" stroke-width="1.51"/><path d="M792,-125L303,-143L490,-125Z" fill="#210800" stroke="#210800" stroke-width="1.51"/><path d="M1313,-141L303,-143L792,-125Z" fill="#110200" stroke="#110200" stroke-width="1.51"/><path d="M1484,226L1544,153L1432,125Z" fill="#360b01" stroke="#360b01" stroke-width="1.51"/><path d="M1551,303L1517,236L1451,288Z" fill="#280a01" stroke="#280a01" stroke-width="1.51"/><path d="M-26,428L9,488L73,384Z" fill="#1e0700" stroke="#1e0700" stroke-width="1.51"/><path d="M-14,335L73,384L56,315Z" fill="#2a0b00" stroke="#2a0b00" stroke-width="1.51"/><path d="M76,864L185,846L137,759Z" fill="#390803" stroke="#390803" stroke-width="1.51"/><path d="M185,846L150,903L268,936Z" fill="#390902" stroke="#390902" stroke-width="1.51"/><path d="M268,936L221,1011L344,1013Z" fill="#380a01" stroke="#380a01" stroke-width="1.51"/><path d="M82,170L44,217L141,248Z" fill="#410a01" stroke="#410a01" stroke-width="1.51"/><path d="M-39,135L44,217L82,170Z" fill="#400a01" stroke="#400a01" stroke-width="1.51"/><path d="M49,688L62,749L137,759Z" fill="#380703" stroke="#380703" stroke-width="1.51"/><path d="M1522,70L1458,68L1432,125Z" fill="#320a01" stroke="#320a01" stroke-width="1.51"/><path d="M1523,401L1551,303L1451,288Z" fill="#210700" stroke="#210700" stroke-width="1.51"/><path d="M1565,644L1558,550L1479,590Z" fill="#1c0401" stroke="#1c0401" stroke-width="1.51"/><path d="M150,903L221,1011L268,936Z" fill="#350a02" stroke="#350a02" stroke-width="1.51"/><path d="M344,1013L125,1036L571,1036Z" fill="#300b00" stroke="#300b00" stroke-width="1.51"/><path d="M1517,236L1544,153L1484,226Z" fill="#300b01" stroke="#300b01" stroke-width="1.51"/><path d="M1567,467L1551,303L1523,401Z" fill="#150400" stroke="#150400" stroke-width="1.51"/><path d="M1558,550L1567,467L1459,491Z" fill="#110201" stroke="#110201" stroke-width="1.51"/><path d="M137,-15L248,33L181,-93Z" fill="#3c0b01" stroke="#3c0b01" stroke-width="1.51"/><path d="M1531,814L1527,738L1479,756Z" fill="#280703" stroke="#280703" stroke-width="1.51"/><path d="M1484,902L1531,814L1428,844Z" fill="#240602" stroke="#240602" stroke-width="1.51"/><path d="M1252,1019L1336,1027L1308,922Z" fill="#230602" stroke="#230602" stroke-width="1.51"/><path d="M1170,1039L1336,1027L1252,1019Z" fill="#230502" stroke="#230502" stroke-width="1.51"/><path d="M181,-93L248,33L277,-5Z" fill="#410a01" stroke="#410a01" stroke-width="1.51"/><path d="M1479,756L1527,738L1434,670Z" fill="#290702" stroke="#290702" stroke-width="1.51"/><path d="M1531,814L1479,756L1428,844Z" fill="#270602" stroke="#270602" stroke-width="1.51"/><path d="M1458,68L1425,-16L1364,49Z" fill="#2f0a01" stroke="#2f0a01" stroke-width="1.51"/><path d="M1364,-34L1313,-141L1285,-42Z" fill="#260801" stroke="#260801" stroke-width="1.51"/><path d="M1522,70L1425,-16L1458,68Z" fill="#2c0a01" stroke="#2c0a01" stroke-width="1.51"/><path d="M1386,-135L1313,-141L1364,-34Z" fill="#210601" stroke="#210601" stroke-width="1.51"/><path d="M1173,-112L1313,-141L1136,-113Z" fill="#270702" stroke="#270702" stroke-width="1.51"/><path d="M961,-122L1313,-141L792,-125Z" fill="#220601" stroke="#220601" stroke-width="1.51"/><path d="M-2,250L56,315L44,217Z" fill="#350b01" stroke="#350b01" stroke-width="1.51"/><path d="M-2,250L-14,335L56,315Z" fill="#2e0b00" stroke="#2e0b00" stroke-width="1.51"/><path d="M-14,335L-26,428L73,384Z" fill="#230900" stroke="#230900" stroke-width="1.51"/><path d="M-8,685L15,751L49,688Z" fill="#300902" stroke="#300902" stroke-width="1.51"/><path d="M1,808L76,864L62,749Z" fill="#320902" stroke="#320902" stroke-width="1.51"/><path d="M1527,738L1565,644L1434,670Z" fill="#250602" stroke="#250602" stroke-width="1.51"/><path d="M1558,550L1565,644L1567,467Z" fill="#150301" stroke="#150301" stroke-width="1.51"/><path d="M-39,135L-2,250L44,217Z" fill="#3a0b01" stroke="#3a0b01" stroke-width="1.51"/><path d="M150,903L125,1036L221,1011Z" fill="#2e0b01" stroke="#2e0b01" stroke-width="1.51"/><path d="M62,749L76,864L137,759Z" fill="#380803" stroke="#380803" stroke-width="1.51"/><path d="M15,751L62,749L49,688Z" fill="#340902" stroke="#340902" stroke-width="1.51"/><path d="M213,-139L181,-93L277,-5Z" fill="#370c01" stroke="#370c01" stroke-width="1.51"/><path d="M137,-15L103,-14L90,65Z" fill="#390b01" stroke="#390b01" stroke-width="1.51"/><path d="M-8,685L64,601L-47,573Z" fill="#280901" stroke="#280901" stroke-width="1.51"/><path d="M-47,573L64,601L9,488Z" fill="#230801" stroke="#230801" stroke-width="1.51"/><path d="M303,-143L213,-139L277,-5Z" fill="#390b01" stroke="#390b01" stroke-width="1.51"/><path d="M1551,303L1544,153L1517,236Z" fill="#2b0b00" stroke="#2b0b00" stroke-width="1.51"/><path d="M1570,-84L1544,153L1551,303Z" fill="#320b00" stroke="#320b00" stroke-width="1.51"/><path d="M90,65L-39,135L82,170Z" fill="#420a01" stroke="#420a01" stroke-width="1.51"/><path d="M181,-93L103,-14L137,-15Z" fill="#350b01" stroke="#350b01" stroke-width="1.51"/><path d="M98,-140L103,-14L181,-93Z" fill="#2e0b00" stroke="#2e0b00" stroke-width="1.51"/><path d="M1527,738L1531,814L1565,644Z" fill="#260602" stroke="#260602" stroke-width="1.51"/><path d="M1484,902L1428,844L1361,918Z" fill="#240602" stroke="#240602" stroke-width="1.51"/><path d="M1445,995L1484,902L1361,918Z" fill="#200502" stroke="#200502" stroke-width="1.51"/><path d="M-70,463L9,488L-26,428Z" fill="#170400" stroke="#170400" stroke-width="1.51"/><path d="M-70,463L-47,573L9,488Z" fill="#1b0500" stroke="#1b0500" stroke-width="1.51"/><path d="M1544,153L1522,70L1432,125Z" fill="#340a01" stroke="#340a01" stroke-width="1.51"/><path d="M1427,-134L1386,-135L1364,-34Z" fill="#1f0601" stroke="#1f0601" stroke-width="1.51"/><path d="M1427,-134L1364,-34L1425,-16Z" fill="#240701" stroke="#240701" stroke-width="1.51"/><path d="M-77,400L-26,428L-14,335Z" fill="#1f0700" stroke="#1f0700" stroke-width="1.51"/><path d="M-77,400L-70,463L-26,428Z" fill="#150400" stroke="#150400" stroke-width="1.51"/><path d="M15,751L1,808L62,749Z" fill="#330802" stroke="#330802" stroke-width="1.51"/><path d="M76,864L47,904L150,903Z" fill="#2f0a01" stroke="#2f0a01" stroke-width="1.51"/><path d="M-73,754L1,808L15,751Z" fill="#2f0802" stroke="#2f0802" stroke-width="1.51"/><path d="M-73,754L15,751L-8,685Z" fill="#2e0902" stroke="#2e0902" stroke-width="1.51"/><path d="M-93,670L-8,685L-47,573Z" fill="#250701" stroke="#250701" stroke-width="1.51"/><path d="M1336,1027L1445,995L1361,918Z" fill="#1f0501" stroke="#1f0501" stroke-width="1.51"/><path d="M1484,902L1550,897L1531,814Z" fill="#200502" stroke="#200502" stroke-width="1.51"/><path d="M1,808L47,904L76,864Z" fill="#2d0a01" stroke="#2d0a01" stroke-width="1.51"/><path d="M-93,316L-77,400L-14,335Z" fill="#210800" stroke="#210800" stroke-width="1.51"/><path d="M-93,316L-14,335L-2,250Z" fill="#290b00" stroke="#290b00" stroke-width="1.51"/><path d="M49,1013L125,1036L150,903Z" fill="#290a01" stroke="#290a01" stroke-width="1.51"/><path d="M221,1011L125,1036L344,1013Z" fill="#310b01" stroke="#310b01" stroke-width="1.51"/><path d="M571,1036L-122,1044L1170,1039Z" fill="#1f0700" stroke="#1f0700" stroke-width="1.51"/><path d="M1386,-135L1427,-134L1313,-141Z" fill="#1b0401" stroke="#1b0401" stroke-width="1.51"/><path d="M1543,-45L1427,-134L1425,-16Z" fill="#1f0600" stroke="#1f0600" stroke-width="1.51"/><path d="M-38,65L-39,135L90,65Z" fill="#390b01" stroke="#390b01" stroke-width="1.51"/><path d="M-38,65L90,65L5,-58Z" fill="#320c01" stroke="#320c01" stroke-width="1.51"/><path d="M-77,400L-111,559L-70,463Z" fill="#110300" stroke="#110300" stroke-width="1.51"/><path d="M-92,237L-93,316L-2,250Z" fill="#2b0c00" stroke="#2b0c00" stroke-width="1.51"/><path d="M1510,1009L1550,897L1484,902Z" fill="#1a0401" stroke="#1a0401" stroke-width="1.51"/><path d="M1531,814L1550,897L1565,644Z" fill="#250602" stroke="#250602" stroke-width="1.51"/><path d="M-70,463L-111,559L-47,573Z" fill="#190400" stroke="#190400" stroke-width="1.51"/><path d="M-93,316L-111,559L-77,400Z" fill="#120400" stroke="#120400" stroke-width="1.51"/><path d="M-111,559L-93,670L-47,573Z" fill="#1f0501" stroke="#1f0501" stroke-width="1.51"/><path d="M-83,834L15,953L47,904Z" fill="#260801" stroke="#260801" stroke-width="1.51"/><path d="M47,904L49,1013L150,903Z" fill="#2a0a01" stroke="#2a0a01" stroke-width="1.51"/><path d="M-93,316L-92,237L-111,559Z" fill="#1a0600" stroke="#1a0600" stroke-width="1.51"/><path d="M-39,135L-92,237L-2,250Z" fill="#350b01" stroke="#350b01" stroke-width="1.51"/><path d="M-93,670L-73,754L-8,685Z" fill="#290802" stroke="#290802" stroke-width="1.51"/><path d="M-39,135L-69,116L-92,237Z" fill="#390b01" stroke="#390b01" stroke-width="1.51"/><path d="M213,-139L98,-140L181,-93Z" fill="#2c0b00" stroke="#2c0b00" stroke-width="1.51"/><path d="M303,-143L98,-140L213,-139Z" fill="#2d0b00" stroke="#2d0b00" stroke-width="1.51"/><path d="M5,-58L90,65L103,-14Z" fill="#330b01" stroke="#330b01" stroke-width="1.51"/><path d="M-83,834L47,904L1,808Z" fill="#290801" stroke="#290801" stroke-width="1.51"/><path d="M-38,65L-69,116L-39,135Z" fill="#370b01" stroke="#370b01" stroke-width="1.51"/><path d="M1570,-84L1522,70L1544,153Z" fill="#280a00" stroke="#280a00" stroke-width="1.51"/><path d="M1570,-84L1543,-45L1522,70Z" fill="#210800" stroke="#210800" stroke-width="1.51"/><path d="M1522,70L1543,-45L1425,-16Z" fill="#260901" stroke="#260901" stroke-width="1.51"/><path d="M1445,995L1510,1009L1484,902Z" fill="#1a0401" stroke="#1a0401" stroke-width="1.51"/><path d="M1336,1027L1510,1009L1445,995Z" fill="#190301" stroke="#190301" stroke-width="1.51"/><path d="M15,953L49,1013L47,904Z" fill="#250800" stroke="#250800" stroke-width="1.51"/><path d="M-38,65L-88,63L-69,116Z" fill="#320c00" stroke="#320c00" stroke-width="1.51"/><path d="M98,-140L5,-58L103,-14Z" fill="#2b0b00" stroke="#2b0b00" stroke-width="1.51"/><path d="M15,953L-36,994L49,1013Z" fill="#200700" stroke="#200700" stroke-width="1.51"/><path d="M-73,754L-83,834L1,808Z" fill="#2a0802" stroke="#2a0802" stroke-width="1.51"/><path d="M-121,895L-83,834L-73,754Z" fill="#240602" stroke="#240602" stroke-width="1.51"/><path d="M-121,895L-73,754L-93,670Z" fill="#280702" stroke="#280702" stroke-width="1.51"/><path d="M-101,-20L-88,63L-38,65Z" fill="#2b0b00" stroke="#2b0b00" stroke-width="1.51"/><path d="M-69,116L-88,63L-92,237Z" fill="#380b01" stroke="#380b01" stroke-width="1.51"/><path d="M-92,237L-101,-20L-111,559Z" fill="#290b00" stroke="#290b00" stroke-width="1.51"/><path d="M1543,-45L1570,-84L1427,-134Z" fill="#190500" stroke="#190500" stroke-width="1.51"/><path d="M1567,467L1570,-84L1551,303Z" fill="#2a0b00" stroke="#2a0b00" stroke-width="1.51"/><path d="M5,-58L-101,-20L-38,65Z" fill="#290b00" stroke="#290b00" stroke-width="1.51"/><path d="M98,-140L6,-130L5,-58Z" fill="#230900" stroke="#230900" stroke-width="1.51"/><path d="M-121,895L-36,994L15,953Z" fill="#1f0601" stroke="#1f0601" stroke-width="1.51"/><path d="M49,1013L-122,1044L125,1036Z" fill="#1d0600" stroke="#1d0600" stroke-width="1.51"/><path d="M-83,834L-121,895L15,953Z" fill="#210701" stroke="#210701" stroke-width="1.51"/><path d="M-111,559L-121,895L-93,670Z" fill="#250702" stroke="#250702" stroke-width="1.51"/><path d="M-101,-109L-101,-20L5,-58Z" fill="#200800" stroke="#200800" stroke-width="1.51"/><path d="M-88,63L-101,-20L-92,237Z" fill="#310c00" stroke="#310c00" stroke-width="1.51"/><path d="M-111,559L-101,-109L-121,895Z" fill="#080100" stroke="#080100" stroke-width="1.51"/><path d="M6,-130L-101,-109L5,-58Z" fill="#1e0700" stroke="#1e0700" stroke-width="1.51"/><path d="M-101,-20L-101,-109L-111,559Z" fill="#370b01" stroke="#370b01" stroke-width="1.51"/><path d="M-121,895L-122,1044L-36,994Z" fill="#170400" stroke="#170400" stroke-width="1.51"/><path d="M-36,994L-122,1044L49,1013Z" fill="#190500" stroke="#190500" stroke-width="1.51"/><path d="M125,1036L-122,1044L571,1036Z" fill="#2c0b00" stroke="#2c0b00" stroke-width="1.51"/></svg>