<svg xmlns="http://www.w3.org/2000/svg" width="1440" height="900"><path d="M750,430L747,481L818,466Z" fill="#902d2b" stroke="#902d2b" stroke-width="1.51"/><path d="M818,466L835,430L750,430Z" fill="#8f2b29" stroke="#8f2b29" stroke-width="1.51"/><path d="M750,430L702,410L747,481Z" fill="#8f3130" stroke="#8f3130" stroke-width="1.51"/><path d="M753,306L702,410L750,430Z" fill="#862d2c" stroke="#862d2c" stroke-width="1.51"/><path d="M747,481L744,567L818,466Z" fill="#902825" stroke="#902825" stroke-width="1.51"/><path d="M678,582L744,567L747,481Z" fill="#902824" stroke="#902824" stroke-width="1.51"/><path d="M744,567L870,556L818,466Z" fill="#90211d" stroke="#90211d" stroke-width="1.51"/><path d="M818,466L922,472L835,430Z" fill="#902723" stroke="#902723" stroke-width="1.51"/><path d="M702,410L645,489L747,481Z" fill="#8e3030" stroke="#8e3030" stroke-width="1.51"/><path d="M870,556L922,472L818,466Z" fill="#90201b" stroke="#90201b" stroke-width="1.51"/><path d="M835,430L753,306L750,430Z" fill="#882a29" stroke="#882a29" stroke-width="1.51"/><path d="M951,411L855,326L835,430Z" fill="#87221e" stroke="#87221e" stroke-width="1.51"/><path d="M855,326L753,306L835,430Z" fill="#832523" stroke="#832523" stroke-width="1.51"/><path d="M702,410L601,406L645,489Z" fill="#872e2e" stroke="#872e2e" stroke-width="1.51"/><path d="M645,489L678,582L747,481Z" fill="#8d2a27" stroke="#8d2a27" stroke-width="1.51"/><path d="M744,567L816,672L870,556Z" fill="#8f1612" stroke="#8f1612" stroke-width="1.51"/><path d="M922,472L951,411L835,430Z" fill="#8f231e" stroke="#8f231e" stroke-width="1.51"/><path d="M682,287L601,406L702,410Z" fill="#7f2b2b" stroke="#7f2b2b" stroke-width="1.51"/><path d="M645,489L618,597L678,582Z" fill="#89231f" stroke="#89231f" stroke-width="1.51"/><path d="M601,406L593,464L645,489Z" fill="#852d2d" stroke="#852d2d" stroke-width="1.51"/><path d="M753,306L682,287L702,410Z" fill="#7f2b2b" stroke="#7f2b2b" stroke-width="1.51"/><path d="M757,253L682,287L753,306Z" fill="#782828" stroke="#782828" stroke-width="1.51"/><path d="M855,326L757,253L753,306Z" fill="#7b2423" stroke="#7b2423" stroke-width="1.51"/><path d="M593,464L618,597L645,489Z" fill="#862724" stroke="#862724" stroke-width="1.51"/><path d="M737,698L816,672L744,567Z" fill="#801b18" stroke="#801b18" stroke-width="1.51"/><path d="M737,698L744,567L678,582Z" fill="#8b201c" stroke="#8b201c" stroke-width="1.51"/><path d="M870,556L964,582L922,472Z" fill="#8f140f" stroke="#8f140f" stroke-width="1.51"/><path d="M618,597L654,641L678,582Z" fill="#871d19" stroke="#871d19" stroke-width="1.51"/><path d="M927,673L964,582L870,556Z" fill="#8d0303" stroke="#8d0303" stroke-width="1.51"/><path d="M922,472L1005,467L951,411Z" fill="#8a201c" stroke="#8a201c" stroke-width="1.51"/><path d="M964,582L1005,467L922,472Z" fill="#891813" stroke="#891813" stroke-width="1.51"/><path d="M951,411L950,299L855,326Z" fill="#811c17" stroke="#811c17" stroke-width="1.51"/><path d="M855,326L859,221L757,253Z" fill="#76221e" stroke="#76221e" stroke-width="1.51"/><path d="M1005,467L1006,415L951,411Z" fill="#811f1c" stroke="#811f1c" stroke-width="1.51"/><path d="M1012,352L950,299L951,411Z" fill="#7a1a17" stroke="#7a1a17" stroke-width="1.51"/><path d="M682,287L591,308L601,406Z" fill="#772727" stroke="#772727" stroke-width="1.51"/><path d="M601,406L535,393L593,464Z" fill="#7e2b2b" stroke="#7e2b2b" stroke-width="1.51"/><path d="M667,240L591,308L682,287Z" fill="#712626" stroke="#712626" stroke-width="1.51"/><path d="M654,641L737,698L678,582Z" fill="#7f1f1c" stroke="#7f1f1c" stroke-width="1.51"/><path d="M757,253L667,240L682,287Z" fill="#722928" stroke="#722928" stroke-width="1.51"/><path d="M950,299L859,221L855,326Z" fill="#781c18" stroke="#781c18" stroke-width="1.51"/><path d="M757,253L773,179L667,240Z" fill="#6e2827" stroke="#6e2827" stroke-width="1.51"/><path d="M591,308L535,393L601,406Z" fill="#772828" stroke="#772828" stroke-width="1.51"/><path d="M593,464L536,576L618,597Z" fill="#83221e" stroke="#83221e" stroke-width="1.51"/><path d="M1006,415L1012,352L951,411Z" fill="#7b1c19" stroke="#7b1c19" stroke-width="1.51"/><path d="M950,299L964,236L859,221Z" fill="#731a14" stroke="#731a14" stroke-width="1.51"/><path d="M1078,399L1012,352L1006,415Z" fill="#711c1a" stroke="#711c1a" stroke-width="1.51"/><path d="M816,672L927,673L870,556Z" fill="#83100c" stroke="#83100c" stroke-width="1.51"/><path d="M841,761L927,673L816,672Z" fill="#6d1210" stroke="#6d1210" stroke-width="1.51"/><path d="M737,698L759,721L816,672Z" fill="#6f1a19" stroke="#6f1a19" stroke-width="1.51"/><path d="M695,723L759,721L737,698Z" fill="#6a1d1d" stroke="#6a1d1d" stroke-width="1.51"/><path d="M618,597L568,682L654,641Z" fill="#781b18" stroke="#781b18" stroke-width="1.51"/><path d="M654,641L695,723L737,698Z" fill="#701e1d" stroke="#701e1d" stroke-width="1.51"/><path d="M481,495L536,576L593,464Z" fill="#7e2422" stroke="#7e2422" stroke-width="1.51"/><path d="M859,221L773,179L757,253Z" fill="#6d2421" stroke="#6d2421" stroke-width="1.51"/><path d="M568,682L695,723L654,641Z" fill="#6c1c1b" stroke="#6c1c1b" stroke-width="1.51"/><path d="M964,582L1043,560L1005,467Z" fill="#7f1410" stroke="#7f1410" stroke-width="1.51"/><path d="M1005,467L1078,472L1006,415Z" fill="#791f1d" stroke="#791f1d" stroke-width="1.51"/><path d="M1012,692L1043,560L964,582Z" fill="#7a0603" stroke="#7a0603" stroke-width="1.51"/><path d="M667,240L598,233L591,308Z" fill="#6b2625" stroke="#6b2625" stroke-width="1.51"/><path d="M591,308L500,334L535,393Z" fill="#702525" stroke="#702525" stroke-width="1.51"/><path d="M688,149L598,233L667,240Z" fill="#642625" stroke="#642625" stroke-width="1.51"/><path d="M1035,218L964,236L950,299Z" fill="#671914" stroke="#671914" stroke-width="1.51"/><path d="M859,221L873,170L773,179Z" fill="#68221d" stroke="#68221d" stroke-width="1.51"/><path d="M1043,560L1078,472L1005,467Z" fill="#771916" stroke="#771916" stroke-width="1.51"/><path d="M1012,352L1035,218L950,299Z" fill="#6b1815" stroke="#6b1815" stroke-width="1.51"/><path d="M535,393L481,495L593,464Z" fill="#7e2a2a" stroke="#7e2a2a" stroke-width="1.51"/><path d="M408,388L481,495L535,393Z" fill="#742827" stroke="#742827" stroke-width="1.51"/><path d="M964,236L873,170L859,221Z" fill="#6b1d17" stroke="#6b1d17" stroke-width="1.51"/><path d="M1078,472L1078,399L1006,415Z" fill="#711e1d" stroke="#711e1d" stroke-width="1.51"/><path d="M472,220L500,334L591,308Z" fill="#662222" stroke="#662222" stroke-width="1.51"/><path d="M534,657L568,682L618,597Z" fill="#731a17" stroke="#731a17" stroke-width="1.51"/><path d="M534,657L618,597L536,576Z" fill="#7d1a16" stroke="#7d1a16" stroke-width="1.51"/><path d="M882,821L841,761L768,840Z" fill="#591413" stroke="#591413" stroke-width="1.51"/><path d="M759,721L841,761L816,672Z" fill="#681716" stroke="#681716" stroke-width="1.51"/><path d="M927,673L1012,692L964,582Z" fill="#760704" stroke="#760704" stroke-width="1.51"/><path d="M451,594L534,657L536,576Z" fill="#791713" stroke="#791713" stroke-width="1.51"/><path d="M773,179L688,149L667,240Z" fill="#662827" stroke="#662827" stroke-width="1.51"/><path d="M785,50L688,149L773,179Z" fill="#622826" stroke="#622826" stroke-width="1.51"/><path d="M955,764L1012,692L927,673Z" fill="#640a06" stroke="#640a06" stroke-width="1.51"/><path d="M1043,560L1109,571L1078,472Z" fill="#6e1412" stroke="#6e1412" stroke-width="1.51"/><path d="M617,88L614,116L688,149Z" fill="#5c2726" stroke="#5c2726" stroke-width="1.51"/><path d="M964,236L958,167L873,170Z" fill="#681a13" stroke="#681a13" stroke-width="1.51"/><path d="M1035,218L958,167L964,236Z" fill="#5f1914" stroke="#5f1914" stroke-width="1.51"/><path d="M1012,692L1109,571L1043,560Z" fill="#710805" stroke="#710805" stroke-width="1.51"/><path d="M1184,389L1114,351L1078,399Z" fill="#5a1a1b" stroke="#5a1a1b" stroke-width="1.51"/><path d="M1119,254L1035,218L1012,352Z" fill="#5c1715" stroke="#5c1715" stroke-width="1.51"/><path d="M1078,399L1114,351L1012,352Z" fill="#651a1a" stroke="#651a1a" stroke-width="1.51"/><path d="M1184,389L1078,399L1078,472Z" fill="#621d1d" stroke="#621d1d" stroke-width="1.51"/><path d="M841,761L955,764L927,673Z" fill="#630e0b" stroke="#630e0b" stroke-width="1.51"/><path d="M1012,692L1125,694L1109,571Z" fill="#5c0b07" stroke="#5c0b07" stroke-width="1.51"/><path d="M386,468L451,594L481,495Z" fill="#73231f" stroke="#73231f" stroke-width="1.51"/><path d="M481,495L451,594L536,576Z" fill="#791e1a" stroke="#791e1a" stroke-width="1.51"/><path d="M568,682L564,753L695,723Z" fill="#5e1a1a" stroke="#5e1a1a" stroke-width="1.51"/><path d="M768,840L841,761L759,721Z" fill="#5c1818" stroke="#5c1818" stroke-width="1.51"/><path d="M497,736L564,753L568,682Z" fill="#561718" stroke="#561718" stroke-width="1.51"/><path d="M497,736L568,682L534,657Z" fill="#5f1817" stroke="#5f1817" stroke-width="1.51"/><path d="M500,334L408,388L535,393Z" fill="#6d2525" stroke="#6d2525" stroke-width="1.51"/><path d="M397,296L408,388L500,334Z" fill="#642322" stroke="#642322" stroke-width="1.51"/><path d="M472,220L591,308L598,233Z" fill="#632322" stroke="#632322" stroke-width="1.51"/><path d="M768,840L759,721L695,723Z" fill="#5c1c1d" stroke="#5c1c1d" stroke-width="1.51"/><path d="M841,761L882,821L955,764Z" fill="#5b0f0d" stroke="#5b0f0d" stroke-width="1.51"/><path d="M688,149L614,116L598,233Z" fill="#5b2524" stroke="#5b2524" stroke-width="1.51"/><path d="M785,50L773,179L857,57Z" fill="#662521" stroke="#662521" stroke-width="1.51"/><path d="M666,826L768,840L695,723Z" fill="#591c1e" stroke="#591c1e" stroke-width="1.51"/><path d="M564,753L666,826L695,723Z" fill="#551a1c" stroke="#551a1c" stroke-width="1.51"/><path d="M521,129L472,220L598,233Z" fill="#572121" stroke="#572121" stroke-width="1.51"/><path d="M994,840L1050,740L955,764Z" fill="#4d0b08" stroke="#4d0b08" stroke-width="1.51"/><path d="M955,764L1050,740L1012,692Z" fill="#540b08" stroke="#540b08" stroke-width="1.51"/><path d="M408,388L386,468L481,495Z" fill="#712929" stroke="#712929" stroke-width="1.51"/><path d="M1043,36L915,79L958,167Z" fill="#5e1c15" stroke="#5e1c15" stroke-width="1.51"/><path d="M1114,351L1119,254L1012,352Z" fill="#5c1717" stroke="#5c1717" stroke-width="1.51"/><path d="M1191,287L1119,254L1114,351Z" fill="#4c1517" stroke="#4c1517" stroke-width="1.51"/><path d="M564,753L611,857L666,826Z" fill="#50191a" stroke="#50191a" stroke-width="1.51"/><path d="M428,718L497,736L534,657Z" fill="#571616" stroke="#571616" stroke-width="1.51"/><path d="M404,651L534,657L451,594Z" fill="#6b1814" stroke="#6b1814" stroke-width="1.51"/><path d="M958,167L915,79L873,170Z" fill="#611c15" stroke="#611c15" stroke-width="1.51"/><path d="M1049,153L958,167L1035,218Z" fill="#541814" stroke="#541814" stroke-width="1.51"/><path d="M614,116L521,129L598,233Z" fill="#552322" stroke="#552322" stroke-width="1.51"/><path d="M696,40L617,88L688,149Z" fill="#612928" stroke="#612928" stroke-width="1.51"/><path d="M1099,149L1049,153L1035,218Z" fill="#491715" stroke="#491715" stroke-width="1.51"/><path d="M857,57L773,179L873,170Z" fill="#62221d" stroke="#62221d" stroke-width="1.51"/><path d="M915,79L857,57L873,170Z" fill="#652019" stroke="#652019" stroke-width="1.51"/><path d="M1207,513L1184,389L1078,472Z" fill="#5d1c1e" stroke="#5d1c1e" stroke-width="1.51"/><path d="M1207,513L1078,472L1109,571Z" fill="#621615" stroke="#621615" stroke-width="1.51"/><path d="M420,239L397,296L500,334Z" fill="#5d2121" stroke="#5d2121" stroke-width="1.51"/><path d="M314,435L351,493L386,468Z" fill="#682825" stroke="#682825" stroke-width="1.51"/><path d="M617,88L521,129L614,116Z" fill="#582524" stroke="#582524" stroke-width="1.51"/><path d="M472,220L420,239L500,334Z" fill="#5c2120" stroke="#5c2120" stroke-width="1.51"/><path d="M1050,740L1125,694L1012,692Z" fill="#4f0b09" stroke="#4f0b09" stroke-width="1.51"/><path d="M426,171L420,239L472,220Z" fill="#4f2120" stroke="#4f2120" stroke-width="1.51"/><path d="M303,581L404,651L451,594Z" fill="#6a1a13" stroke="#6a1a13" stroke-width="1.51"/><path d="M770,-30L696,40L785,50Z" fill="#6e2d2b" stroke="#6e2d2b" stroke-width="1.51"/><path d="M785,50L696,40L688,149Z" fill="#682c2b" stroke="#682c2b" stroke-width="1.51"/><path d="M617,88L483,67L521,129Z" fill="#562423" stroke="#562423" stroke-width="1.51"/><path d="M386,468L351,493L451,594Z" fill="#6e221f" stroke="#6e221f" stroke-width="1.51"/><path d="M314,435L386,468L408,388Z" fill="#682827" stroke="#682827" stroke-width="1.51"/><path d="M1214,560L1207,513L1109,571Z" fill="#5c1211" stroke="#5c1211" stroke-width="1.51"/><path d="M487,832L611,857L564,753Z" fill="#4a1618" stroke="#4a1618" stroke-width="1.51"/><path d="M666,826L734,892L768,840Z" fill="#561c1d" stroke="#561c1d" stroke-width="1.51"/><path d="M487,832L564,753L497,736Z" fill="#4a1517" stroke="#4a1517" stroke-width="1.51"/><path d="M1125,694L1214,560L1109,571Z" fill="#5b0b07" stroke="#5b0b07" stroke-width="1.51"/><path d="M1050,740L1125,723L1125,694Z" fill="#440b09" stroke="#440b09" stroke-width="1.51"/><path d="M1079,821L1125,723L1050,740Z" fill="#3c0b09" stroke="#3c0b09" stroke-width="1.51"/><path d="M664,901L734,892L666,826Z" fill="#521a1b" stroke="#521a1b" stroke-width="1.51"/><path d="M768,840L823,954L882,821Z" fill="#551513" stroke="#551513" stroke-width="1.51"/><path d="M949,864L994,840L955,764Z" fill="#520a05" stroke="#520a05" stroke-width="1.51"/><path d="M404,651L428,718L534,657Z" fill="#5d1815" stroke="#5d1815" stroke-width="1.51"/><path d="M949,864L955,764L882,821Z" fill="#580b06" stroke="#580b06" stroke-width="1.51"/><path d="M823,954L949,864L882,821Z" fill="#540f0b" stroke="#540f0b" stroke-width="1.51"/><path d="M1119,254L1099,149L1035,218Z" fill="#491615" stroke="#491615" stroke-width="1.51"/><path d="M991,-31L914,-5L915,79Z" fill="#6e2018" stroke="#6e2018" stroke-width="1.51"/><path d="M1199,145L1099,149L1119,254Z" fill="#391515" stroke="#391515" stroke-width="1.51"/><path d="M1184,389L1191,287L1114,351Z" fill="#4f1819" stroke="#4f1819" stroke-width="1.51"/><path d="M1314,297L1191,287L1184,389Z" fill="#491617" stroke="#491617" stroke-width="1.51"/><path d="M1213,697L1214,560L1125,694Z" fill="#4c0b07" stroke="#4c0b07" stroke-width="1.51"/><path d="M1267,208L1195,260L1314,297Z" fill="#3e1415" stroke="#3e1415" stroke-width="1.51"/><path d="M301,322L314,435L408,388Z" fill="#5e2524" stroke="#5e2524" stroke-width="1.51"/><path d="M318,218L301,322L397,296Z" fill="#4f201f" stroke="#4f201f" stroke-width="1.51"/><path d="M521,129L426,171L472,220Z" fill="#4d201f" stroke="#4d201f" stroke-width="1.51"/><path d="M483,67L426,171L521,129Z" fill="#4c2120" stroke="#4c2120" stroke-width="1.51"/><path d="M612,952L664,901L611,857Z" fill="#4b1819" stroke="#4b1819" stroke-width="1.51"/><path d="M611,857L664,901L666,826Z" fill="#4f191a" stroke="#4f191a" stroke-width="1.51"/><path d="M1191,287L1195,260L1119,254Z" fill="#441516" stroke="#441516" stroke-width="1.51"/><path d="M1270,462L1184,389L1207,513Z" fill="#5a1c1e" stroke="#5a1c1e" stroke-width="1.51"/><path d="M301,322L408,388L397,296Z" fill="#5b2222" stroke="#5b2222" stroke-width="1.51"/><path d="M303,581L353,665L404,651Z" fill="#5e1913" stroke="#5e1913" stroke-width="1.51"/><path d="M404,651L353,665L428,718Z" fill="#551815" stroke="#551815" stroke-width="1.51"/><path d="M1197,734L1213,697L1125,694Z" fill="#3b0a09" stroke="#3b0a09" stroke-width="1.51"/><path d="M994,840L1079,821L1050,740Z" fill="#430b08" stroke="#430b08" stroke-width="1.51"/><path d="M1005,914L1079,821L994,840Z" fill="#430b05" stroke="#430b05" stroke-width="1.51"/><path d="M420,810L487,832L497,736Z" fill="#431516" stroke="#431516" stroke-width="1.51"/><path d="M303,581L451,594L351,493Z" fill="#6a1e19" stroke="#6a1e19" stroke-width="1.51"/><path d="M420,810L497,736L428,718Z" fill="#431517" stroke="#431517" stroke-width="1.51"/><path d="M915,79L914,-5L857,57Z" fill="#6c221b" stroke="#6c221b" stroke-width="1.51"/><path d="M821,-47L770,-30L785,50Z" fill="#702b27" stroke="#702b27" stroke-width="1.51"/><path d="M1043,36L958,167L1049,153Z" fill="#521a15" stroke="#521a15" stroke-width="1.51"/><path d="M821,-47L785,50L857,57Z" fill="#6f2824" stroke="#6f2824" stroke-width="1.51"/><path d="M696,40L597,5L617,88Z" fill="#642a29" stroke="#642a29" stroke-width="1.51"/><path d="M673,-46L597,5L696,40Z" fill="#6a2d2d" stroke="#6a2d2d" stroke-width="1.51"/><path d="M597,5L483,67L617,88Z" fill="#5c2726" stroke="#5c2726" stroke-width="1.51"/><path d="M1214,560L1270,462L1207,513Z" fill="#591616" stroke="#591616" stroke-width="1.51"/><path d="M1261,611L1270,462L1214,560Z" fill="#581210" stroke="#581210" stroke-width="1.51"/><path d="M269,510L303,581L351,493Z" fill="#63221d" stroke="#63221d" stroke-width="1.51"/><path d="M1197,734L1125,694L1125,723Z" fill="#3a0b0a" stroke="#3a0b0a" stroke-width="1.51"/><path d="M314,435L269,510L351,493Z" fill="#632623" stroke="#632623" stroke-width="1.51"/><path d="M318,218L397,296L420,239Z" fill="#4f2120" stroke="#4f2120" stroke-width="1.51"/><path d="M318,218L420,239L426,171Z" fill="#4a201f" stroke="#4a201f" stroke-width="1.51"/><path d="M1107,76L1049,153L1099,149Z" fill="#421715" stroke="#421715" stroke-width="1.51"/><path d="M1107,76L1043,36L1049,153Z" fill="#4a1a17" stroke="#4a1a17" stroke-width="1.51"/><path d="M792,1008L823,954L734,892Z" fill="#651b1a" stroke="#651b1a" stroke-width="1.51"/><path d="M734,892L823,954L768,840Z" fill="#541718" stroke="#541718" stroke-width="1.51"/><path d="M949,864L1005,914L994,840Z" fill="#4b0b04" stroke="#4b0b04" stroke-width="1.51"/><path d="M1270,462L1279,437L1184,389Z" fill="#561b1d" stroke="#561b1d" stroke-width="1.51"/><path d="M1361,472L1279,437L1270,462Z" fill="#561c1c" stroke="#561c1c" stroke-width="1.51"/><path d="M1207,821L1197,734L1125,723Z" fill="#2d0a09" stroke="#2d0a09" stroke-width="1.51"/><path d="M1194,87L1107,76L1099,149Z" fill="#3a1717" stroke="#3a1717" stroke-width="1.51"/><path d="M496,915L612,952L611,857Z" fill="#471617" stroke="#471617" stroke-width="1.51"/><path d="M356,765L420,810L428,718Z" fill="#3d1516" stroke="#3d1516" stroke-width="1.51"/><path d="M356,765L428,718L353,665Z" fill="#471615" stroke="#471615" stroke-width="1.51"/><path d="M1252,674L1261,611L1213,697Z" fill="#460b07" stroke="#460b07" stroke-width="1.51"/><path d="M1213,697L1261,611L1214,560Z" fill="#530b06" stroke="#530b06" stroke-width="1.51"/><path d="M770,-30L673,-46L696,40Z" fill="#6e2e2e" stroke="#6e2e2e" stroke-width="1.51"/><path d="M914,-5L821,-47L857,57Z" fill="#712620" stroke="#712620" stroke-width="1.51"/><path d="M856,-93L821,-47L914,-5Z" fill="#66211b" stroke="#66211b" stroke-width="1.51"/><path d="M947,945L1005,914L949,864Z" fill="#4e0b03" stroke="#4e0b03" stroke-width="1.51"/><path d="M1079,821L1207,821L1125,723Z" fill="#300a09" stroke="#300a09" stroke-width="1.51"/><path d="M258,420L269,510L314,435Z" fill="#612927" stroke="#612927" stroke-width="1.51"/><path d="M402,4L407,72L483,67Z" fill="#4e2423" stroke="#4e2423" stroke-width="1.51"/><path d="M792,-125L673,-46L770,-30Z" fill="#622725" stroke="#622725" stroke-width="1.51"/><path d="M823,954L947,945L949,864Z" fill="#590e0a" stroke="#590e0a" stroke-width="1.51"/><path d="M314,127L318,218L426,171Z" fill="#3f1f1e" stroke="#3f1f1e" stroke-width="1.51"/><path d="M301,322L258,420L314,435Z" fill="#592524" stroke="#592524" stroke-width="1.51"/><path d="M1267,780L1252,674L1213,697Z" fill="#350a08" stroke="#350a08" stroke-width="1.51"/><path d="M700,1017L792,1008L734,892Z" fill="#6d2120" stroke="#6d2120" stroke-width="1.51"/><path d="M496,915L611,857L487,832Z" fill="#441516" stroke="#441516" stroke-width="1.51"/><path d="M233,294L258,420L301,322Z" fill="#542323" stroke="#542323" stroke-width="1.51"/><path d="M238,674L353,665L303,581Z" fill="#551913" stroke="#551913" stroke-width="1.51"/><path d="M238,674L356,765L353,665Z" fill="#441715" stroke="#441715" stroke-width="1.51"/><path d="M431,940L496,915L487,832Z" fill="#3d1314" stroke="#3d1314" stroke-width="1.51"/><path d="M1267,208L1199,145L1195,260Z" fill="#371415" stroke="#371415" stroke-width="1.51"/><path d="M1195,260L1199,145L1119,254Z" fill="#3c1516" stroke="#3c1516" stroke-width="1.51"/><path d="M1043,36L991,-31L915,79Z" fill="#631f19" stroke="#631f19" stroke-width="1.51"/><path d="M1117,4L991,-31L1043,36Z" fill="#561e1a" stroke="#561e1a" stroke-width="1.51"/><path d="M1117,4L1043,36L1107,76Z" fill="#4a1b1a" stroke="#4a1b1a" stroke-width="1.51"/><path d="M483,67L407,72L426,171Z" fill="#4a2121" stroke="#4a2121" stroke-width="1.51"/><path d="M507,-22L483,67L597,5Z" fill="#5d2727" stroke="#5d2727" stroke-width="1.51"/><path d="M431,940L487,832L420,810Z" fill="#3c1415" stroke="#3c1415" stroke-width="1.51"/><path d="M823,954L857,990L947,945Z" fill="#691412" stroke="#691412" stroke-width="1.51"/><path d="M792,1008L857,990L823,954Z" fill="#711b19" stroke="#711b19" stroke-width="1.51"/><path d="M1314,297L1195,260L1191,287Z" fill="#431416" stroke="#431416" stroke-width="1.51"/><path d="M700,1017L734,892L664,901Z" fill="#5d1d1e" stroke="#5d1d1e" stroke-width="1.51"/><path d="M610,-112L507,-22L597,5Z" fill="#5a2525" stroke="#5a2525" stroke-width="1.51"/><path d="M947,945L992,989L1005,914Z" fill="#590e0a" stroke="#590e0a" stroke-width="1.51"/><path d="M857,990L913,993L947,945Z" fill="#6e1310" stroke="#6e1310" stroke-width="1.51"/><path d="M792,1008L913,993L857,990Z" fill="#761a17" stroke="#761a17" stroke-width="1.51"/><path d="M821,-47L792,-125L770,-30Z" fill="#622420" stroke="#622420" stroke-width="1.51"/><path d="M673,-46L610,-112L597,5Z" fill="#5d2727" stroke="#5d2727" stroke-width="1.51"/><path d="M961,-122L856,-93L914,-5Z" fill="#611c15" stroke="#611c15" stroke-width="1.51"/><path d="M1199,145L1194,87L1099,149Z" fill="#321516" stroke="#321516" stroke-width="1.51"/><path d="M1253,140L1194,87L1199,145Z" fill="#311415" stroke="#311415" stroke-width="1.51"/><path d="M1361,472L1270,462L1378,547Z" fill="#541717" stroke="#541717" stroke-width="1.51"/><path d="M1367,398L1314,297L1279,437Z" fill="#4c1819" stroke="#4c1819" stroke-width="1.51"/><path d="M1279,437L1314,297L1184,389Z" fill="#4e1819" stroke="#4e1819" stroke-width="1.51"/><path d="M1197,734L1267,780L1213,697Z" fill="#300a08" stroke="#300a08" stroke-width="1.51"/><path d="M1116,912L1207,821L1079,821Z" fill="#2d0906" stroke="#2d0906" stroke-width="1.51"/><path d="M1116,912L1079,821L1005,914Z" fill="#390a05" stroke="#390a05" stroke-width="1.51"/><path d="M612,952L700,1017L664,901Z" fill="#611e1f" stroke="#611e1f" stroke-width="1.51"/><path d="M571,1036L700,1017L612,952Z" fill="#6f2122" stroke="#6f2122" stroke-width="1.51"/><path d="M1194,87L1117,4L1107,76Z" fill="#3d1919" stroke="#3d1919" stroke-width="1.51"/><path d="M991,-31L961,-122L914,-5Z" fill="#611b14" stroke="#611b14" stroke-width="1.51"/><path d="M1090,981L1116,912L1005,914Z" fill="#410c0a" stroke="#410c0a" stroke-width="1.51"/><path d="M214,601L303,581L269,510Z" fill="#631f18" stroke="#631f18" stroke-width="1.51"/><path d="M318,218L233,294L301,322Z" fill="#4a201f" stroke="#4a201f" stroke-width="1.51"/><path d="M211,263L233,294L318,218Z" fill="#482020" stroke="#482020" stroke-width="1.51"/><path d="M1194,87L1186,-48L1117,4Z" fill="#3e1a1b" stroke="#3e1a1b" stroke-width="1.51"/><path d="M1267,208L1253,140L1199,145Z" fill="#301314" stroke="#301314" stroke-width="1.51"/><path d="M1369,171L1253,140L1267,208Z" fill="#2f1313" stroke="#2f1313" stroke-width="1.51"/><path d="M407,72L314,127L426,171Z" fill="#41201f" stroke="#41201f" stroke-width="1.51"/><path d="M308,60L314,127L407,72Z" fill="#402120" stroke="#402120" stroke-width="1.51"/><path d="M913,993L992,989L947,945Z" fill="#6a100c" stroke="#6a100c" stroke-width="1.51"/><path d="M1170,1039L992,989L913,993Z" fill="#651212" stroke="#651212" stroke-width="1.51"/><path d="M1090,981L992,989L1170,1039Z" fill="#561212" stroke="#561212" stroke-width="1.51"/><path d="M1378,547L1270,462L1261,611Z" fill="#561311" stroke="#561311" stroke-width="1.51"/><path d="M1378,547L1261,611L1349,668Z" fill="#520a04" stroke="#520a04" stroke-width="1.51"/><path d="M856,-93L792,-125L821,-47Z" fill="#5e201c" stroke="#5e201c" stroke-width="1.51"/><path d="M961,-122L792,-125L856,-93Z" fill="#581b14" stroke="#581b14" stroke-width="1.51"/><path d="M325,924L431,940L420,810Z" fill="#341313" stroke="#341313" stroke-width="1.51"/><path d="M214,601L238,674L303,581Z" fill="#5d1a13" stroke="#5d1a13" stroke-width="1.51"/><path d="M214,601L269,510L144,490Z" fill="#67231e" stroke="#67231e" stroke-width="1.51"/><path d="M144,490L269,510L258,420Z" fill="#652826" stroke="#652826" stroke-width="1.51"/><path d="M1207,821L1267,780L1197,734Z" fill="#2b0907" stroke="#2b0907" stroke-width="1.51"/><path d="M1311,854L1267,780L1207,821Z" fill="#270705" stroke="#270705" stroke-width="1.51"/><path d="M792,-125L646,-113L673,-46Z" fill="#5a2524" stroke="#5a2524" stroke-width="1.51"/><path d="M507,-22L402,4L483,67Z" fill="#562625" stroke="#562625" stroke-width="1.51"/><path d="M359,-8L402,4L438,-91Z" fill="#4a2322" stroke="#4a2322" stroke-width="1.51"/><path d="M1361,472L1367,398L1279,437Z" fill="#521b1c" stroke="#521b1c" stroke-width="1.51"/><path d="M1314,297L1357,223L1267,208Z" fill="#391315" stroke="#391315" stroke-width="1.51"/><path d="M646,-113L610,-112L673,-46Z" fill="#562322" stroke="#562322" stroke-width="1.51"/><path d="M490,-125L610,-112L646,-113Z" fill="#4b1e1d" stroke="#4b1e1d" stroke-width="1.51"/><path d="M496,915L529,1007L612,952Z" fill="#571a1b" stroke="#571a1b" stroke-width="1.51"/><path d="M314,835L420,810L356,765Z" fill="#361415" stroke="#361415" stroke-width="1.51"/><path d="M253,843L314,835L212,781Z" fill="#2f1415" stroke="#2f1415" stroke-width="1.51"/><path d="M220,132L211,263L318,218Z" fill="#3f2020" stroke="#3f2020" stroke-width="1.51"/><path d="M133,413L144,490L258,420Z" fill="#672c2b" stroke="#672c2b" stroke-width="1.51"/><path d="M220,132L318,218L314,127Z" fill="#361e1d" stroke="#361e1d" stroke-width="1.51"/><path d="M428,994L529,1007L496,915Z" fill="#561a1a" stroke="#561a1a" stroke-width="1.51"/><path d="M1117,4L1011,-102L991,-31Z" fill="#511b17" stroke="#511b17" stroke-width="1.51"/><path d="M1349,668L1261,611L1252,674Z" fill="#470b05" stroke="#470b05" stroke-width="1.51"/><path d="M1361,472L1466,405L1367,398Z" fill="#571c1d" stroke="#571c1d" stroke-width="1.51"/><path d="M1011,-102L961,-122L991,-31Z" fill="#531711" stroke="#531711" stroke-width="1.51"/><path d="M1267,780L1349,668L1252,674Z" fill="#360a07" stroke="#360a07" stroke-width="1.51"/><path d="M992,989L1090,981L1005,914Z" fill="#530f0d" stroke="#530f0d" stroke-width="1.51"/><path d="M1116,912L1225,896L1207,821Z" fill="#280605" stroke="#280605" stroke-width="1.51"/><path d="M1170,1039L913,993L792,1008Z" fill="#771211" stroke="#771211" stroke-width="1.51"/><path d="M700,1017L1170,1039L792,1008Z" fill="#7f1816" stroke="#7f1816" stroke-width="1.51"/><path d="M529,1007L571,1036L612,952Z" fill="#681f1f" stroke="#681f1f" stroke-width="1.51"/><path d="M428,994L571,1036L529,1007Z" fill="#691e1e" stroke="#691e1e" stroke-width="1.51"/><path d="M359,-8L308,60L407,72Z" fill="#472322" stroke="#472322" stroke-width="1.51"/><path d="M1388,318L1314,297L1367,398Z" fill="#451517" stroke="#451517" stroke-width="1.51"/><path d="M1388,318L1357,223L1314,297Z" fill="#3d1315" stroke="#3d1315" stroke-width="1.51"/><path d="M1279,28L1186,-48L1194,87Z" fill="#3b191a" stroke="#3b191a" stroke-width="1.51"/><path d="M1117,4L1136,-113L1011,-102Z" fill="#401715" stroke="#401715" stroke-width="1.51"/><path d="M1466,405L1388,318L1367,398Z" fill="#531a1a" stroke="#531a1a" stroke-width="1.51"/><path d="M1267,780L1354,783L1349,668Z" fill="#2b0906" stroke="#2b0906" stroke-width="1.51"/><path d="M1170,1039L1225,896L1116,912Z" fill="#340d0c" stroke="#340d0c" stroke-width="1.51"/><path d="M402,4L359,-8L407,72Z" fill="#4c2524" stroke="#4c2524" stroke-width="1.51"/><path d="M438,-91L402,4L507,-22Z" fill="#4f2323" stroke="#4f2323" stroke-width="1.51"/><path d="M212,781L314,835L356,765Z" fill="#2f1314" stroke="#2f1314" stroke-width="1.51"/><path d="M214,601L188,682L238,674Z" fill="#551b16" stroke="#551b16" stroke-width="1.51"/><path d="M156,592L188,682L214,601Z" fill="#601d16" stroke="#601d16" stroke-width="1.51"/><path d="M133,413L258,420L233,294Z" fill="#5d2726" stroke="#5d2726" stroke-width="1.51"/><path d="M144,490L156,592L214,601Z" fill="#69221c" stroke="#69221c" stroke-width="1.51"/><path d="M431,940L428,994L496,915Z" fill="#4a1818" stroke="#4a1818" stroke-width="1.51"/><path d="M344,1013L428,994L431,940Z" fill="#511b1a" stroke="#511b1a" stroke-width="1.51"/><path d="M325,924L420,810L314,835Z" fill="#321313" stroke="#321313" stroke-width="1.51"/><path d="M490,-125L438,-91L507,-22Z" fill="#491f1f" stroke="#491f1f" stroke-width="1.51"/><path d="M125,305L133,413L233,294Z" fill="#5b2626" stroke="#5b2626" stroke-width="1.51"/><path d="M308,60L220,132L314,127Z" fill="#371f1f" stroke="#371f1f" stroke-width="1.51"/><path d="M248,33L220,132L308,60Z" fill="#3c2121" stroke="#3c2121" stroke-width="1.51"/><path d="M248,33L308,60L277,-5Z" fill="#3f2323" stroke="#3f2323" stroke-width="1.51"/><path d="M125,305L233,294L211,263Z" fill="#522323" stroke="#522323" stroke-width="1.51"/><path d="M144,490L101,515L156,592Z" fill="#6d2621" stroke="#6d2621" stroke-width="1.51"/><path d="M1279,28L1194,87L1253,140Z" fill="#331617" stroke="#331617" stroke-width="1.51"/><path d="M1011,-102L1136,-113L961,-122Z" fill="#42140f" stroke="#42140f" stroke-width="1.51"/><path d="M792,-125L490,-125L646,-113Z" fill="#4f201f" stroke="#4f201f" stroke-width="1.51"/><path d="M610,-112L490,-125L507,-22Z" fill="#4d1f1f" stroke="#4d1f1f" stroke-width="1.51"/><path d="M253,843L325,924L314,835Z" fill="#2b1213" stroke="#2b1213" stroke-width="1.51"/><path d="M212,781L356,765L238,674Z" fill="#361515" stroke="#361515" stroke-width="1.51"/><path d="M188,682L212,781L238,674Z" fill="#431817" stroke="#431817" stroke-width="1.51"/><path d="M137,759L212,781L188,682Z" fill="#3c1818" stroke="#3c1818" stroke-width="1.51"/><path d="M1357,223L1369,171L1267,208Z" fill="#321313" stroke="#321313" stroke-width="1.51"/><path d="M1484,226L1369,171L1357,223Z" fill="#391515" stroke="#391515" stroke-width="1.51"/><path d="M1364,49L1279,28L1253,140Z" fill="#321617" stroke="#321617" stroke-width="1.51"/><path d="M1355,806L1354,783L1267,780Z" fill="#270504" stroke="#270504" stroke-width="1.51"/><path d="M1479,590L1459,491L1378,547Z" fill="#651614" stroke="#651614" stroke-width="1.51"/><path d="M1225,896L1311,854L1207,821Z" fill="#260604" stroke="#260604" stroke-width="1.51"/><path d="M1308,922L1311,854L1225,896Z" fill="#240302" stroke="#240302" stroke-width="1.51"/><path d="M173,143L141,248L211,263Z" fill="#472322" stroke="#472322" stroke-width="1.51"/><path d="M141,248L125,305L211,263Z" fill="#522423" stroke="#522423" stroke-width="1.51"/><path d="M1173,-112L1136,-113L1186,-48Z" fill="#2e1212" stroke="#2e1212" stroke-width="1.51"/><path d="M1186,-48L1136,-113L1117,4Z" fill="#371617" stroke="#371617" stroke-width="1.51"/><path d="M1311,854L1355,806L1267,780Z" fill="#260504" stroke="#260504" stroke-width="1.51"/><path d="M1434,670L1378,547L1349,668Z" fill="#4f0c05" stroke="#4f0c05" stroke-width="1.51"/><path d="M277,-5L359,-8L303,-143Z" fill="#3b1f1f" stroke="#3b1f1f" stroke-width="1.51"/><path d="M277,-5L308,60L359,-8Z" fill="#432424" stroke="#432424" stroke-width="1.51"/><path d="M220,132L173,143L211,263Z" fill="#3f2120" stroke="#3f2120" stroke-width="1.51"/><path d="M49,688L137,759L188,682Z" fill="#4a1b1a" stroke="#4a1b1a" stroke-width="1.51"/><path d="M133,413L101,515L144,490Z" fill="#6d2c2a" stroke="#6d2c2a" stroke-width="1.51"/><path d="M73,384L101,515L133,413Z" fill="#6d2e2e" stroke="#6d2e2e" stroke-width="1.51"/><path d="M1378,547L1459,491L1361,472Z" fill="#5b1817" stroke="#5b1817" stroke-width="1.51"/><path d="M1388,318L1451,288L1357,223Z" fill="#441516" stroke="#441516" stroke-width="1.51"/><path d="M1434,670L1349,668L1354,783Z" fill="#360a06" stroke="#360a06" stroke-width="1.51"/><path d="M303,-143L359,-8L438,-91Z" fill="#3b1d1d" stroke="#3b1d1d" stroke-width="1.51"/><path d="M189,74L173,143L220,132Z" fill="#3c2121" stroke="#3c2121" stroke-width="1.51"/><path d="M1479,756L1434,670L1354,783Z" fill="#370c0c" stroke="#370c0c" stroke-width="1.51"/><path d="M1459,491L1466,405L1361,472Z" fill="#631f1f" stroke="#631f1f" stroke-width="1.51"/><path d="M1136,-113L1313,-141L961,-122Z" fill="#2a100e" stroke="#2a100e" stroke-width="1.51"/><path d="M1285,-42L1173,-112L1186,-48Z" fill="#301415" stroke="#301415" stroke-width="1.51"/><path d="M1364,-34L1285,-42L1279,28Z" fill="#361819" stroke="#361819" stroke-width="1.51"/><path d="M1466,405L1451,288L1388,318Z" fill="#561a1a" stroke="#561a1a" stroke-width="1.51"/><path d="M325,924L344,1013L431,940Z" fill="#441818" stroke="#441818" stroke-width="1.51"/><path d="M253,843L268,936L325,924Z" fill="#281212" stroke="#281212" stroke-width="1.51"/><path d="M185,846L268,936L253,843Z" fill="#2d1415" stroke="#2d1415" stroke-width="1.51"/><path d="M185,846L253,843L212,781Z" fill="#311516" stroke="#311516" stroke-width="1.51"/><path d="M1090,981L1170,1039L1116,912Z" fill="#440f10" stroke="#440f10" stroke-width="1.51"/><path d="M1311,854L1361,918L1355,806Z" fill="#230302" stroke="#230302" stroke-width="1.51"/><path d="M571,1036L1170,1039L700,1017Z" fill="#83211e" stroke="#83211e" stroke-width="1.51"/><path d="M248,33L189,74L220,132Z" fill="#3f2323" stroke="#3f2323" stroke-width="1.51"/><path d="M56,315L125,305L141,248Z" fill="#592625" stroke="#592625" stroke-width="1.51"/><path d="M56,315L73,384L125,305Z" fill="#612928" stroke="#612928" stroke-width="1.51"/><path d="M90,65L189,74L137,-15Z" fill="#492727" stroke="#492727" stroke-width="1.51"/><path d="M1355,806L1428,844L1354,783Z" fill="#260604" stroke="#260604" stroke-width="1.51"/><path d="M1252,1019L1308,922L1225,896Z" fill="#2f0b0a" stroke="#2f0b0a" stroke-width="1.51"/><path d="M268,936L344,1013L325,924Z" fill="#3d1817" stroke="#3d1817" stroke-width="1.51"/><path d="M428,994L344,1013L571,1036Z" fill="#621e1e" stroke="#621e1e" stroke-width="1.51"/><path d="M49,688L188,682L156,592Z" fill="#5b1e19" stroke="#5b1e19" stroke-width="1.51"/><path d="M125,305L73,384L133,413Z" fill="#622a29" stroke="#622a29" stroke-width="1.51"/><path d="M101,515L64,601L156,592Z" fill="#6f241d" stroke="#6f241d" stroke-width="1.51"/><path d="M56,315L141,248L44,217Z" fill="#552625" stroke="#552625" stroke-width="1.51"/><path d="M137,759L185,846L212,781Z" fill="#361718" stroke="#361718" stroke-width="1.51"/><path d="M1279,28L1285,-42L1186,-48Z" fill="#381819" stroke="#381819" stroke-width="1.51"/><path d="M1364,49L1253,140L1369,171Z" fill="#2c1314" stroke="#2c1314" stroke-width="1.51"/><path d="M1434,670L1479,590L1378,547Z" fill="#620d09" stroke="#620d09" stroke-width="1.51"/><path d="M1459,491L1523,401L1466,405Z" fill="#6f2223" stroke="#6f2223" stroke-width="1.51"/><path d="M1565,644L1479,590L1434,670Z" fill="#68110f" stroke="#68110f" stroke-width="1.51"/><path d="M1432,125L1364,49L1369,171Z" fill="#2f1515" stroke="#2f1515" stroke-width="1.51"/><path d="M9,488L64,601L101,515Z" fill="#6f2722" stroke="#6f2722" stroke-width="1.51"/><path d="M1484,226L1432,125L1369,171Z" fill="#3b1617" stroke="#3b1617" stroke-width="1.51"/><path d="M1364,49L1364,-34L1279,28Z" fill="#361819" stroke="#361819" stroke-width="1.51"/><path d="M1484,226L1357,223L1451,288Z" fill="#471718" stroke="#471718" stroke-width="1.51"/><path d="M1170,1039L1252,1019L1225,896Z" fill="#3e0f10" stroke="#3e0f10" stroke-width="1.51"/><path d="M73,384L9,488L101,515Z" fill="#6f2e2c" stroke="#6f2e2c" stroke-width="1.51"/><path d="M82,170L141,248L173,143Z" fill="#442323" stroke="#442323" stroke-width="1.51"/><path d="M1523,401L1451,288L1466,405Z" fill="#651e1e" stroke="#651e1e" stroke-width="1.51"/><path d="M1517,236L1484,226L1451,288Z" fill="#551b1b" stroke="#551b1b" stroke-width="1.51"/><path d="M1336,1027L1361,918L1308,922Z" fill="#300c0a" stroke="#300c0a" stroke-width="1.51"/><path d="M1308,922L1361,918L1311,854Z" fill="#220101" stroke="#220101" stroke-width="1.51"/><path d="M1567,467L1523,401L1459,491Z" fill="#7a2525" stroke="#7a2525" stroke-width="1.51"/><path d="M90,65L82,170L173,143Z" fill="#412424" stroke="#412424" stroke-width="1.51"/><path d="M90,65L173,143L189,74Z" fill="#422424" stroke="#422424" stroke-width="1.51"/><path d="M1361,918L1428,844L1355,806Z" fill="#250503" stroke="#250503" stroke-width="1.51"/><path d="M1479,590L1558,550L1459,491Z" fill="#751917" stroke="#751917" stroke-width="1.51"/><path d="M1428,844L1479,756L1354,783Z" fill="#2f0b0a" stroke="#2f0b0a" stroke-width="1.51"/><path d="M1458,68L1364,49L1432,125Z" fill="#3a1919" stroke="#3a1919" stroke-width="1.51"/><path d="M1425,-16L1364,-34L1364,49Z" fill="#3a1a1b" stroke="#3a1a1b" stroke-width="1.51"/><path d="M1285,-42L1313,-141L1173,-112Z" fill="#281010" stroke="#281010" stroke-width="1.51"/><path d="M76,864L150,903L185,846Z" fill="#341718" stroke="#341718" stroke-width="1.51"/><path d="M64,601L49,688L156,592Z" fill="#672019" stroke="#672019" stroke-width="1.51"/><path d="M-8,685L49,688L64,601Z" fill="#591c18" stroke="#591c18" stroke-width="1.51"/><path d="M137,-15L189,74L248,33Z" fill="#462626" stroke="#462626" stroke-width="1.51"/><path d="M490,-125L303,-143L438,-91Z" fill="#381a19" stroke="#381a19" stroke-width="1.51"/><path d="M792,-125L303,-143L490,-125Z" fill="#421b1a" stroke="#421b1a" stroke-width="1.51"/><path d="M1313,-141L303,-143L792,-125Z" fill="#521d19" stroke="#521d19" stroke-width="1.51"/><path d="M1484,226L1544,153L1432,125Z" fill="#481b1a" stroke="#481b1a" stroke-width="1.51"/><path d="M1551,303L1517,236L1451,288Z" fill="#601d1c" stroke="#601d1c" stroke-width="1.51"/><path d="M-26,428L9,488L73,384Z" fill="#662b2a" stroke="#662b2a" stroke-width="1.51"/><path d="M-14,335L73,384L56,315Z" fill="#5e2727" stroke="#5e2727" stroke-width="1.51"/><path d="M76,864L185,846L137,759Z" fill="#381819" stroke="#381819" stroke-width="1.51"/><path d="M185,846L150,903L268,936Z" fill="#2e1516" stroke="#2e1516" stroke-width="1.51"/><path d="M268,936L221,1011L344,1013Z" fill="#451b1a" stroke="#451b1a" stroke-width="1.51"/><path d="M82,170L44,217L141,248Z" fill="#4c2625" stroke="#4c2625" stroke-width="1.51"/><path d="M-39,135L44,217L82,170Z" fill="#402121" stroke="#402121" stroke-width="1.51"/><path d="M49,688L62,749L137,759Z" fill="#461c1c" stroke="#461c1c" stroke-width="1.51"/><path d="M1522,70L1458,68L1432,125Z" fill="#471c1b" stroke="#471c1b" stroke-width="1.51"/><path d="M1523,401L1551,303L1451,288Z" fill="#681e1e" stroke="#681e1e" stroke-width="1.51"/><path d="M1565,644L1558,550L1479,590Z" fill="#7f1411" stroke="#7f1411" stroke-width="1.51"/><path d="M150,903L221,1011L268,936Z" fill="#3d1919" stroke="#3d1919" stroke-width="1.51"/><path d="M344,1013L125,1036L571,1036Z" fill="#5b1f1e" stroke="#5b1f1e" stroke-width="1.51"/><path d="M1517,236L1544,153L1484,226Z" fill="#561d1d" stroke="#561d1d" stroke-width="1.51"/><path d="M1567,467L1551,303L1523,401Z" fill="#7b2424" stroke="#7b2424" stroke-width="1.51"/><path d="M1558,550L1567,467L1459,491Z" fill="#7d201e" stroke="#7d201e" stroke-width="1.51"/><path d="M137,-15L248,33L181,-93Z" fill="#452625" stroke="#452625" stroke-width="1.51"/><path d="M1531,814L1527,738L1479,756Z" fill="#471113" stroke="#471113" stroke-width="1.51"/><path d="M1484,902L1531,814L1428,844Z" fill="#3a0e0f" stroke="#3a0e0f" stroke-width="1.51"/><path d="M1252,1019L1336,1027L1308,922Z" fill="#3d0f0f" stroke="#3d0f0f" stroke-width="1.51"/><path d="M1170,1039L1336,1027L1252,1019Z" fill="#4c1214" stroke="#4c1214" stroke-width="1.51"/><path d="M181,-93L248,33L277,-5Z" fill="#422424" stroke="#422424" stroke-width="1.51"/><path d="M1479,756L1527,738L1434,670Z" fill="#491010" stroke="#491010" stroke-width="1.51"/><path d="M1531,814L1479,756L1428,844Z" fill="#3d0f0f" stroke="#3d0f0f" stroke-width="1.51"/><path d="M1458,68L1425,-16L1364,49Z" fill="#3e1b1b" stroke="#3e1b1b" stroke-width="1.51"/><path d="M1364,-34L1313,-141L1285,-42Z" fill="#2a1213" stroke="#2a1213" stroke-width="1.51"/><path d="M1522,70L1425,-16L1458,68Z" fill="#4b1e1e" stroke="#4b1e1e" stroke-width="1.51"/><path d="M1386,-135L1313,-141L1364,-34Z" fill="#240e0e" stroke="#240e0e" stroke-width="1.51"/><path d="M1173,-112L1313,-141L1136,-113Z" fill="#260e0d" stroke="#260e0d" stroke-width="1.51"/><path d="M961,-122L1313,-141L792,-125Z" fill="#42130c" stroke="#42130c" stroke-width="1.51"/><path d="M-2,250L56,315L44,217Z" fill="#502423" stroke="#502423" stroke-width="1.51"/><path d="M-2,250L-14,335L56,315Z" fill="#542322" stroke="#542322" stroke-width="1.51"/><path d="M-14,335L-26,428L73,384Z" fill="#5e2727" stroke="#5e2727" stroke-width="1.51"/><path d="M-8,685L15,751L49,688Z" fill="#461918" stroke="#461918" stroke-width="1.51"/><path d="M1,808L76,864L62,749Z" fill="#391819" stroke="#391819" stroke-width="1.51"/><path d="M1527,738L1565,644L1434,670Z" fill="#5c1211" stroke="#5c1211" stroke-width="1.51"/><path d="M1558,550L1565,644L1567,467Z" fill="#871c19" stroke="#871c19" stroke-width="1.51"/><path d="M-39,135L-2,250L44,217Z" fill="#412020" stroke="#412020" stroke-width="1.51"/><path d="M150,903L125,1036L221,1011Z" fill="#4c1e1d" stroke="#4c1e1d" stroke-width="1.51"/><path d="M62,749L76,864L137,759Z" fill="#3c1a1b" stroke="#3c1a1b" stroke-width="1.51"/><path d="M15,751L62,749L49,688Z" fill="#431a19" stroke="#431a19" stroke-width="1.51"/><path d="M213,-139L181,-93L277,-5Z" fill="#361e1e" stroke="#361e1e" stroke-width="1.51"/><path d="M137,-15L103,-14L90,65Z" fill="#4d2a29" stroke="#4d2a29" stroke-width="1.51"/><path d="M-8,685L64,601L-47,573Z" fill="#601b14" stroke="#601b14" stroke-width="1.51"/><path d="M-47,573L64,601L9,488Z" fill="#67211b" stroke="#67211b" stroke-width="1.51"/><path d="M303,-143L213,-139L277,-5Z" fill="#301b1b" stroke="#301b1b" stroke-width="1.51"/><path d="M1551,303L1544,153L1517,236Z" fill="#5f1f1e" stroke="#5f1f1e" stroke-width="1.51"/><path d="M1570,-84L1544,153L1551,303Z" fill="#59211f" stroke="#59211f" stroke-width="1.51"/><path d="M90,65L-39,135L82,170Z" fill="#402323" stroke="#402323" stroke-width="1.51"/><path d="M181,-93L103,-14L137,-15Z" fill="#452525" stroke="#452525" stroke-width="1.51"/><path d="M98,-140L103,-14L181,-93Z" fill="#3d2121" stroke="#3d2121" stroke-width="1.51"/><path d="M1527,738L1531,814L1565,644Z" fill="#561415" stroke="#561415" stroke-width="1.51"/><path d="M1484,902L1428,844L1361,918Z" fill="#2b0a07" stroke="#2b0a07" stroke-width="1.51"/><path d="M1445,995L1484,902L1361,918Z" fill="#370e0d" stroke="#370e0d" stroke-width="1.51"/><path d="M-70,463L9,488L-26,428Z" fill="#602826" stroke="#602826" stroke-width="1.51"/><path d="M-70,463L-47,573L9,488Z" fill="#5f231f" stroke="#5f231f" stroke-width="1.51"/><path d="M1544,153L1522,70L1432,125Z" fill="#4b1d1c" stroke="#4b1d1c" stroke-width="1.51"/><path d="M1427,-134L1386,-135L1364,-34Z" fill="#281010" stroke="#281010" stroke-width="1.51"/><path d="M1427,-134L1364,-34L1425,-16Z" fill="#331516" stroke="#331516" stroke-width="1.51"/><path d="M-77,400L-26,428L-14,335Z" fill="#572423" stroke="#572423" stroke-width="1.51"/><path d="M-77,400L-70,463L-26,428Z" fill="#592524" stroke="#592524" stroke-width="1.51"/><path d="M15,751L1,808L62,749Z" fill="#381719" stroke="#381719" stroke-width="1.51"/><path d="M76,864L47,904L150,903Z" fill="#361819" stroke="#361819" stroke-width="1.51"/><path d="M-73,754L1,808L15,751Z" fill="#311415" stroke="#311415" stroke-width="1.51"/><path d="M-73,754L15,751L-8,685Z" fill="#391615" stroke="#391615" stroke-width="1.51"/><path d="M-93,670L-8,685L-47,573Z" fill="#511711" stroke="#511711" stroke-width="1.51"/><path d="M1336,1027L1445,995L1361,918Z" fill="#390e0e" stroke="#390e0e" stroke-width="1.51"/><path d="M1484,902L1550,897L1531,814Z" fill="#431111" stroke="#431111" stroke-width="1.51"/><path d="M1,808L47,904L76,864Z" fill="#341718" stroke="#341718" stroke-width="1.51"/><path d="M-93,316L-77,400L-14,335Z" fill="#4f201f" stroke="#4f201f" stroke-width="1.51"/><path d="M-93,316L-14,335L-2,250Z" fill="#4c1f1f" stroke="#4c1f1f" stroke-width="1.51"/><path d="M49,1013L125,1036L150,903Z" fill="#51201f" stroke="#51201f" stroke-width="1.51"/><path d="M221,1011L125,1036L344,1013Z" fill="#55201f" stroke="#55201f" stroke-width="1.51"/><path d="M571,1036L-122,1044L1170,1039Z" fill="#762222" stroke="#762222" stroke-width="1.51"/><path d="M1386,-135L1427,-134L1313,-141Z" fill="#1f0908" stroke="#1f0908" stroke-width="1.51"/><path d="M1543,-45L1427,-134L1425,-16Z" fill="#411a1a" stroke="#411a1a" stroke-width="1.51"/><path d="M-38,65L-39,135L90,65Z" fill="#3e2222" stroke="#3e2222" stroke-width="1.51"/><path d="M-38,65L90,65L5,-58Z" fill="#472626" stroke="#472626" stroke-width="1.51"/><path d="M-77,400L-111,559L-70,463Z" fill="#57221f" stroke="#57221f" stroke-width="1.51"/><path d="M-92,237L-93,316L-2,250Z" fill="#431d1c" stroke="#431d1c" stroke-width="1.51"/><path d="M1510,1009L1550,897L1484,902Z" fill="#4a1314" stroke="#4a1314" stroke-width="1.51"/><path d="M1531,814L1550,897L1565,644Z" fill="#4f1415" stroke="#4f1415" stroke-width="1.51"/><path d="M-70,463L-111,559L-47,573Z" fill="#5a1d18" stroke="#5a1d18" stroke-width="1.51"/><path d="M-93,316L-111,559L-77,400Z" fill="#532221" stroke="#532221" stroke-width="1.51"/><path d="M-111,559L-93,670L-47,573Z" fill="#58160d" stroke="#58160d" stroke-width="1.51"/><path d="M-83,834L15,953L47,904Z" fill="#2c1314" stroke="#2c1314" stroke-width="1.51"/><path d="M47,904L49,1013L150,903Z" fill="#431c1c" stroke="#431c1c" stroke-width="1.51"/><path d="M-93,316L-92,237L-111,559Z" fill="#4b1f1e" stroke="#4b1f1e" stroke-width="1.51"/><path d="M-39,135L-92,237L-2,250Z" fill="#3b1d1c" stroke="#3b1d1c" stroke-width="1.51"/><path d="M-93,670L-73,754L-8,685Z" fill="#3c1411" stroke="#3c1411" stroke-width="1.51"/><path d="M-39,135L-69,116L-92,237Z" fill="#301a1a" stroke="#301a1a" stroke-width="1.51"/><path d="M213,-139L98,-140L181,-93Z" fill="#321c1c" stroke="#321c1c" stroke-width="1.51"/><path d="M303,-143L98,-140L213,-139Z" fill="#2b1919" stroke="#2b1919" stroke-width="1.51"/><path d="M5,-58L90,65L103,-14Z" fill="#512b2b" stroke="#512b2b" stroke-width="1.51"/><path d="M-83,834L47,904L1,808Z" fill="#2e1314" stroke="#2e1314" stroke-width="1.51"/><path d="M-38,65L-69,116L-39,135Z" fill="#341d1d" stroke="#341d1d" stroke-width="1.51"/><path d="M1570,-84L1522,70L1544,153Z" fill="#5f2422" stroke="#5f2422" stroke-width="1.51"/><path d="M1570,-84L1543,-45L1522,70Z" fill="#602423" stroke="#602423" stroke-width="1.51"/><path d="M1522,70L1543,-45L1425,-16Z" fill="#572221" stroke="#572221" stroke-width="1.51"/><path d="M1445,995L1510,1009L1484,902Z" fill="#4d1314" stroke="#4d1314" stroke-width="1.51"/><path d="M1336,1027L1510,1009L1445,995Z" fill="#501415" stroke="#501415" stroke-width="1.51"/><path d="M15,953L49,1013L47,904Z" fill="#441c1c" stroke="#441c1c" stroke-width="1.51"/><path d="M-38,65L-88,63L-69,116Z" fill="#341d1d" stroke="#341d1d" stroke-width="1.51"/><path d="M98,-140L5,-58L103,-14Z" fill="#432424" stroke="#432424" stroke-width="1.51"/><path d="M15,953L-36,994L49,1013Z" fill="#4b1d1c" stroke="#4b1d1c" stroke-width="1.51"/><path d="M-73,754L-83,834L1,808Z" fill="#2b1112" stroke="#2b1112" stroke-width="1.51"/><path d="M-121,895L-83,834L-73,754Z" fill="#250e0d" stroke="#250e0d" stroke-width="1.51"/><path d="M-121,895L-73,754L-93,670Z" fill="#270f0f" stroke="#270f0f" stroke-width="1.51"/><path d="M-101,-20L-88,63L-38,65Z" fill="#381f1f" stroke="#381f1f" stroke-width="1.51"/><path d="M-69,116L-88,63L-92,237Z" fill="#2c191a" stroke="#2c191a" stroke-width="1.51"/><path d="M-92,237L-101,-20L-111,559Z" fill="#3b1a19" stroke="#3b1a19" stroke-width="1.51"/><path d="M1543,-45L1570,-84L1427,-134Z" fill="#491b1a" stroke="#491b1a" stroke-width="1.51"/><path d="M1567,467L1570,-84L1551,303Z" fill="#66211f" stroke="#66211f" stroke-width="1.51"/><path d="M5,-58L-101,-20L-38,65Z" fill="#402323" stroke="#402323" stroke-width="1.51"/><path d="M98,-140L6,-130L5,-58Z" fill="#361e1d" stroke="#361e1d" stroke-width="1.51"/><path d="M-121,895L-36,994L15,953Z" fill="#341515" stroke="#341515" stroke-width="1.51"/><path d="M49,1013L-122,1044L125,1036Z" fill="#5c2321" stroke="#5c2321" stroke-width="1.51"/><path d="M-83,834L-121,895L15,953Z" fill="#240f0f" stroke="#240f0f" stroke-width="1.51"/><path d="M-111,559L-121,895L-93,670Z" fill="#34110d" stroke="#34110d" stroke-width="1.51"/><path d="M-101,-109L-101,-20L5,-58Z" fill="#301b1b" stroke="#301b1b" stroke-width="1.51"/><path d="M-88,63L-101,-20L-92,237Z" fill="#2f1a1b" stroke="#2f1a1b" stroke-width="1.51"/><path d="M-111,559L-101,-109L-121,895Z" fill="#532221" stroke="#532221" stroke-width="1.51"/><path d="M6,-130L-101,-109L5,-58Z" fill="#2e1a1a" stroke="#2e1a1a" stroke-width="1.51"/><path d="M-101,-20L-101,-109L-111,559Z" fill="#291817" stroke="#291817" stroke-width="1.51"/><path d="M-121,895L-122,1044L-36,994Z" fill="#381514" stroke="#381514" stroke-width="1.51"/><path d="M-36,994L-122,1044L49,1013Z" fill="#4e1d1c" stroke="#4e1d1c" stroke-width="1.51"/><path d="M125,1036L-122,1044L571,1036Z" fill="#5f2422" stroke="#5f2422" stroke-width="1.51"/></svg>