<svg version="1" xmlns="http://www.w3.org/2000/svg" width="682.667" height="682.667" viewBox="0 0 512.000000 512.000000"><path d="M236.5.6C233.8.8 225.4 1.9 218 3 147 13.5 83.2 54.1 42.8 114.5c-20.2 30.2-34 66.1-40 104-3.2 20.1-3.2 54.9 0 75 11.5 72.9 51.1 135.2 111.7 175.7 30.2 20.2 66.1 34 104 40 20.1 3.2 54.9 3.2 75 0 28.4-4.5 51.2-11.7 76.4-24.3 50.1-24.8 90.2-64.9 115-115 12.6-25.2 19.8-48 24.3-76.4 3.2-20.1 3.2-54.9 0-75-11.5-72.9-51.1-135.2-111.7-175.7-29.9-20-66.2-34-103-39.8-12.7-2-45.9-3.4-58-2.4zM378 106.3c0 .2-23.3 49.8-51.8 110.3l-51.8 109.9 48.8.3c26.8.1 48.8.6 48.8 1s-6.6 18.1-14.7 39.4L342.5 406H134.1l3.9-8.2c2.1-4.6 25.3-53.8 51.5-109.3 26.2-55.6 47.9-101.6 48.2-102.3.4-.9-8.1-1.2-40.6-1.2-22.6 0-41.1-.3-41.1-.6 0-.5 20.9-54.8 29.7-77.2.4-.9 20.6-1.2 96.4-1.2 52.7 0 95.9.2 95.9.3z"/><path d="M207.7 146.9c-.9 2.7-1.7 5.1-1.7 5.5 0 .3 20.7.7 45.9.8l46 .3-51 107.9c-28 59.4-50.9 108.1-50.9 108.3 0 .2 27.7.3 61.5.3h61.4l2.1-4.6c1.1-2.6 2-5 2-5.5s-23.9-.9-54-.9c-29.7 0-54-.4-54-.8s22.5-48.4 50-106.7c27.5-58.2 50.2-106.7 50.6-107.7.5-1.7-1.7-1.8-52.8-1.8h-53.3l-1.8 4.9z"/></svg>